<svg version="1.1" xmlns="http://www.w3.org/2000/svg" viewBox="0 0 1068.833333333333 447.7777777777783" width="2137.666666666666" height="895.5555555555566">
  <!-- svg-source:excalidraw -->
  
  <defs>
    <style>
      @font-face {
        font-family: "Virgil";
        src: url("https://excalidraw.com/Virgil.woff2");
      }
      @font-face {
        font-family: "Cascadia";
        src: url("https://excalidraw.com/Cascadia.woff2");
      }
    </style>
  </defs>
  <rect x="0" y="0" width="1068.833333333333" height="447.7777777777783" fill="#ffffff"></rect><g stroke-linecap="round" transform="translate(148.9761904761907 43.61111111111222) rotate(0 89.02777777777771 115.69444444444434)"><path d="M0 0 C0 0, 0 0, 0 0 M0 0 C0 0, 0 0, 0 0 M-0.33 5.61 C0.73 5.14, 3.3 3.31, 4.41 0.16 M-0.45 6.21 C1.04 4.45, 2.46 3.44, 5.08 0.57 M-0.56 12.17 C5.48 6.16, 9.41 2.07, 9.38 -1.49 M0.53 12.46 C4.08 8.98, 6.13 4.44, 11.29 -0.31 M1.02 16.91 C4.55 11.38, 7.72 6.74, 14.17 -0.53 M0.34 17.62 C3.22 14.29, 7.23 10.34, 15.38 0.29 M1.87 22.44 C5.61 14.75, 11.95 8.12, 22.13 0.39 M0.39 23.36 C6.76 16.87, 12.03 10.19, 21.51 -0.36 M0.9 28.48 C8.23 21.51, 14.57 15.56, 26.59 -1.05 M-0.75 29.76 C6.5 23.66, 10.67 17.85, 25.69 0.32 M1.1 37.91 C10.99 22.72, 21.89 13.68, 30.2 1.25 M-1.24 35.89 C6.26 28.81, 15.35 20.9, 32.58 -0.5 M0.88 43.65 C14.21 28.16, 24.76 11.03, 36.71 0.09 M0.48 42.91 C8.83 30.9, 19.19 21.16, 36.78 -0.36 M1.41 47.6 C7.62 36.55, 18.41 27.71, 41.64 1.56 M0.04 48.95 C12.85 33.76, 24.68 18.75, 42.32 -0.89 M0.59 55.96 C11 41.21, 22.94 31.41, 48.36 -0.28 M0.04 54.59 C14.73 37.83, 30.58 19.57, 47.8 0.9 M1.21 61.88 C16.46 42.13, 29.88 25.28, 54.75 -0.83 M-0.89 61.54 C11.19 47.67, 23.11 33.48, 53.9 -0.69 M0.91 68.81 C19.84 45.8, 41.91 21.71, 57.3 1.74 M-1.17 68.06 C14.23 48.89, 29.73 32.45, 58.45 0.68 M-0.46 73.39 C12.85 58, 29.08 40.2, 65.76 1.03 M0.04 73.9 C22.62 48.5, 44.11 23.18, 64.01 -0.03 M-1.36 80.36 C15.86 62.19, 32.87 44.46, 67.25 1.12 M-0.77 79.27 C16.37 59.38, 33.38 41.19, 68.93 -0.44 M-0.66 85.85 C19.55 65.34, 33.53 43.53, 72.86 -0.87 M-0.59 84.22 C27.72 52.49, 56.66 18.6, 74.89 -0.13 M-1.45 92.11 C21.65 66.49, 40.58 44.69, 77.84 -0.11 M-0.81 91.4 C26.62 61.36, 52.67 30.06, 80 0.08 M-1.14 98.8 C26.78 64.02, 55.03 35.91, 84.16 -1.47 M-0.31 97.43 C22.31 73.15, 45.38 46.48, 84.31 -1.21 M0 101.88 C24.08 74.84, 46.66 47.87, 88.66 -0.86 M0.86 103.86 C24.02 77.41, 46.11 51.9, 90.93 0.75 M-1.77 108.56 C17.21 89.35, 38.77 64.22, 93.7 1.35 M-0.15 110.14 C30.84 76.5, 58.74 41.77, 95.55 -0.51 M0.29 116.54 C34.66 78.92, 65.65 39.98, 99.23 -0.98 M-0.1 115.01 C26.89 86.23, 53.76 55.39, 101.54 0.05 M-0.43 120.78 C37.9 77.6, 77.63 30.56, 105.47 -1.22 M-0.58 121.21 C25.66 92.98, 50.29 64.09, 105.45 -0.34 M-1.99 128.78 C43.56 78.54, 84.34 27.48, 113 -1.25 M-1.13 128.94 C35.87 89.11, 70.02 49.36, 112.16 0.43 M1.59 135.45 C30.52 97.9, 58.91 65.48, 116.74 -0.18 M1.12 134.73 C43.94 84.11, 86.87 35.08, 115.71 0.76 M-0.36 142.08 C27.5 109.68, 56.66 75.55, 121.37 0.6 M-0.2 140.45 C25.43 109.13, 52.52 79.32, 121.68 0.3 M-1.08 147.59 C30.77 109.75, 64.22 74.82, 128.69 0.27 M0.19 146.72 C27.57 115.71, 54.91 83.04, 127.53 0.9 M-0.32 151.37 C42.55 106.97, 80.69 59.78, 131.75 1.72 M0.27 151.66 C47.56 98.9, 93.05 46.64, 133.4 0.03 M1.3 159.89 C45.22 110.67, 86.75 60.85, 138.35 -0.62 M-0.24 158.05 C39.15 113.29, 78.67 67.42, 137.65 -0.42 M-0.8 163.56 C44.9 111.02, 87.3 61.15, 143.16 -0.78 M0.16 164.54 C43.61 114.72, 88.99 63.25, 143.5 0 M0.97 172.2 C51.12 115, 98.35 59.27, 149.55 0.22 M-0.49 170.88 C43.3 119.89, 87.56 68.66, 148.95 0.11 M0.78 175.06 C62.48 106.93, 122.51 38.6, 154.85 -0.32 M0.66 176.58 C37.62 133.34, 75.11 89.87, 154.22 0.43 M-0.26 181.95 C58.03 116.13, 113.87 51.79, 160.08 -0.27 M-0.46 182.35 C52.88 121.71, 106.02 59.97, 158.35 -0.58 M1.07 187.71 C57.29 122.2, 114.76 56.43, 162.84 -1.63 M0.11 188.76 C61.2 116.23, 124.95 42.91, 164.68 -0.12 M-0.39 195.22 C67.05 117.16, 132.49 42.03, 169.68 -0.7 M0.93 194.12 C54.33 134.23, 107.92 72.39, 169.25 0.46 M0.53 201.77 C43.84 152.24, 85.37 104.59, 176.23 -0.13 M0.18 200.55 C42.05 152.33, 84.77 101.7, 174.55 0.24 M-0.81 207.28 C37.69 162.85, 75.62 121.35, 178.99 1.71 M0.36 207.62 C57.72 139.21, 117.45 71.75, 178.94 1.1 M-0.74 214.28 C69.57 132.87, 137.6 53.92, 178.01 5.82 M0.14 212.73 C44.09 160.34, 89.78 107.19, 178.89 7.61 M-0.46 220.06 C53.24 157.34, 107.73 95.35, 178.39 14.11 M-0.82 220.35 C50.48 161.81, 99.01 105.37, 179.1 13.1 M-0.67 225.67 C59.8 156.85, 118.46 88.86, 179.45 19.27 M-0.43 226.15 C59.45 158.59, 117.75 92.85, 179.19 19.14 M0.61 232.41 C61.26 162.29, 124.54 91.14, 178.13 26.56 M-0.58 232.23 C45.08 181.08, 87.57 130.64, 179.38 26.24 M6.54 231.05 C59.1 171.13, 109.97 108.88, 180.52 31.64 M6.05 231.71 C53.84 176.17, 102.39 120.77, 178.71 32 M10.8 232.68 C68.15 164.4, 126.55 97.04, 179.05 38.98 M10.55 231.79 C66.47 170.88, 119.13 108.97, 179.66 38.56 M16.67 232.49 C77.07 164.78, 137.41 93.97, 180.28 44.4 M16.87 231.78 C51.59 191.89, 86.65 151.66, 178.72 43.13 M21.2 231.74 C65.81 180.72, 113.35 127.64, 178.34 51.23 M20.47 232.52 C84.58 160.23, 146.87 89.74, 178.97 49.44 M28.08 232.52 C62.66 187.79, 102.33 147.32, 180.28 55.71 M26.74 230.74 C80.77 168.25, 135.52 105.05, 178.79 56.58 M30.14 230.9 C71.57 181.97, 113.07 135.37, 178.61 63.22 M31.27 230.86 C81.84 172.57, 132.33 113.84, 179.94 61.62 M36.1 231.61 C80.59 180.81, 123.2 128.51, 180.8 67.32 M36.93 231.07 C67.59 199.59, 94.97 165.85, 179.17 67.58 M42.77 230.81 C69.41 200.53, 96.16 167.5, 180.99 72.29 M42.23 231.62 C77.44 192.36, 113.22 154.11, 179.87 73.72 M47.98 231.24 C99.66 172.03, 149.8 115.21, 179.93 79.21 M48.48 231.04 C94.33 177.58, 142.48 123.21, 178.5 80.34 M53.91 231.31 C89.78 188.85, 128.24 146.03, 180.72 88.22 M53.03 231.05 C103.71 174.26, 152.16 117.86, 178.14 85.73 M58.88 230.28 C103.42 178.62, 148.84 128.7, 180 93.43 M58.38 231.46 C97.54 187.29, 136.68 144.53, 180.24 93.26 M65.01 231.44 C100.01 188.67, 141.64 143.73, 179.45 97.48 M63.8 230.63 C90.2 201.85, 116.72 170.44, 179.83 98.43 M68.93 232.66 C112.55 182.78, 150.61 136.59, 179.54 103.35 M68.58 230.24 C99.4 196.67, 130.82 160.71, 178.97 104.21 M73.88 233 C101.34 199.87, 124.68 172.4, 179.72 108.81 M75.2 231.98 C100.41 200.76, 128.56 169.65, 179.66 111.76 M80.36 231.32 C100.94 208.28, 119.94 185.65, 180.42 117.83 M80.84 230.21 C113.76 192.77, 146.93 154.12, 178.79 117.88 M86.22 232.95 C114.72 195.39, 147.75 161.35, 178.44 123.44 M84.46 230.67 C116.88 196.37, 146.63 161.93, 178.47 121.91 M88.68 233.01 C116.1 201.2, 141.18 172.84, 178.35 130.63 M89.72 231.91 C115.63 203.41, 140.94 173.56, 178.38 128.69 M95.68 231.32 C114.72 209, 134.43 187.17, 178.47 135.69 M95.32 232.23 C118.37 204.88, 142.47 177.39, 178.67 134.01 M101.32 231.28 C127.89 202.83, 152.87 170.13, 179 140.85 M101.32 232.62 C116.4 214.71, 131.08 195.61, 179 141.27 M107.83 231.2 C130.04 204.94, 154.55 174.25, 179.97 145.68 M106.06 232.18 C121.93 212.47, 136.93 194.04, 179.51 146.95 M109.67 231 C128.92 210.59, 149.05 188.37, 180.65 153.9 M111.25 230.83 C129.5 209.23, 148.4 187.91, 179.08 153.48 M116.19 230.74 C142.31 202.26, 164.18 173.03, 178.97 160.34 M117.49 231.99 C140.32 204.02, 163.8 177.85, 179.75 160.29 M123.73 233.36 C140.46 210.75, 159.05 190, 181.49 166.24 M121.36 231.26 C145.74 206.4, 166.94 179.19, 179.58 165.14 M126.23 231.17 C141.98 213.66, 160.31 196.72, 179.51 169.92 M126.96 231.11 C138.27 218.7, 148.87 207.05, 179.73 170.86 M131.41 232.6 C146.17 213.7, 159.68 200.35, 179.03 178.15 M132.99 231.58 C148.08 214.22, 161.79 197.86, 179.36 178.79 M139.33 232.75 C151.14 213.09, 164.46 200.09, 180.18 184.98 M138.33 230.95 C152.65 214.53, 167.65 196.17, 179.96 183.68 M142.58 232.04 C157.8 218.97, 169.85 201.4, 180.64 190.71 M143.05 232.45 C154.15 218.83, 167.95 204.97, 179.74 190.69 M148.83 230.82 C156.76 220.39, 168.56 209.93, 181.55 197.15 M148.02 230.91 C158.02 220.66, 167.88 210.04, 180.49 196.74 M153.03 232.04 C158.55 226.77, 163.96 217.92, 179.69 202.34 M153.94 231.48 C158.88 225.59, 165.49 218.88, 178.64 201.31 M159.99 231.8 C166.79 223.11, 170.59 217.43, 177.43 207.86 M158.95 230.32 C164.83 224.69, 169.46 219.77, 178.22 207.76 M164.52 230.05 C168.31 225.08, 175.25 221.21, 178.14 213.74 M163.63 231.27 C167.03 228.45, 170.63 223.52, 179.15 214.35 M170.02 232.58 C172.2 228.94, 176.47 222.85, 178.05 221.14 M170.42 230.74 C172.5 227.93, 174.62 224.87, 179.47 221.01 M175.58 231.94 C175.86 229.31, 177.97 227.71, 178.98 225.75 M175.19 231.52 C176.48 230.19, 177.66 228.03, 179.33 226.03" stroke="#ced4da" stroke-width="0.5" fill="none"></path><path d="M-1 0.96 C40.84 -0.49, 82.41 -1.76, 176.7 -1.03 M-0.82 0.83 C41.89 1.03, 83.01 0.86, 177.36 0.03 M177.61 1.51 C179.92 72.9, 180.78 143.91, 178.16 231.39 M178.81 0.21 C177.51 78.5, 176.79 156.08, 177.89 231.98 M179.18 229.72 C118.79 229.81, 61.3 230.55, -1.15 230.98 M177.75 232.06 C121.35 233.94, 63.36 233.41, 0.17 231.68 M1.02 232.46 C2.97 185.43, 0.97 137.6, 0.37 0.84 M-0.44 232.04 C-1.83 157.86, -0.91 83.92, 0.65 -0.84" stroke="#000000" stroke-width="1" fill="none"></path></g><g stroke-linecap="round"><g transform="translate(334.9647008778203 97.52349942169349) rotate(0 42.85516133376245 0.36456923858304435)"><path d="M-0.4 0.53 C13.5 0.71, 69.66 -0.12, 83.8 0 M1.59 -0.24 C15.84 0.15, 72.44 0.48, 86.11 0.97" stroke="#000000" stroke-width="1" fill="none"></path></g><g transform="translate(334.9647008778203 97.52349942169349) rotate(0 42.85516133376245 0.36456923858304435)"><path d="M58.62 9.43 C65.44 7.39, 76.98 4.98, 87.1 1.07 M56.75 9.93 C66.59 8.37, 74.75 4.42, 85.86 0.6" stroke="#000000" stroke-width="1" fill="none"></path></g><g transform="translate(334.9647008778203 97.52349942169349) rotate(0 42.85516133376245 0.36456923858304435)"><path d="M59 -11.09 C65.51 -6.31, 76.92 -1.9, 87.1 1.07 M57.13 -10.59 C67.05 -6.25, 75.1 -4.31, 85.86 0.6" stroke="#000000" stroke-width="1" fill="none"></path></g></g><g stroke-linecap="round"><g transform="translate(336.68767196745057 235.58230206423104) rotate(0 42.68004159376858 -1.407384356374223)"><path d="M0.09 -0.19 C14.59 -0.35, 72.42 -0.59, 86.68 -1.01 M-1.32 -1.34 C13.05 -1.82, 70.89 -2.56, 85.77 -2.62" stroke="#000000" stroke-width="1" fill="none"></path></g><g transform="translate(336.68767196745057 235.58230206423104) rotate(0 42.68004159376858 -1.407384356374223)"><path d="M57.36 8.04 C67.04 3.34, 72.03 0.19, 84.49 -3.7 M56.87 8.31 C67.43 3.65, 77.63 0.11, 86.08 -3.49" stroke="#000000" stroke-width="1" fill="none"></path></g><g transform="translate(336.68767196745057 235.58230206423104) rotate(0 42.68004159376858 -1.407384356374223)"><path d="M57.17 -12.48 C66.89 -11.52, 71.93 -9.01, 84.49 -3.7 M56.68 -12.21 C67.35 -9.82, 77.62 -6.32, 86.08 -3.49" stroke="#000000" stroke-width="1" fill="none"></path></g></g><g transform="translate(265.4920634920635 215.28571428571558) rotate(0 24.5 13)"><text x="49" y="18" font-family="Virgil, Segoe UI Emoji" font-size="20px" fill="#000000" text-anchor="end" style="white-space: pre;" direction="ltr">soma</text></g><g transform="translate(258.6507936507934 83.22222222222354) rotate(0 28 13)"><text x="56" y="18" font-family="Virgil, Segoe UI Emoji" font-size="20px" fill="#000000" text-anchor="end" style="white-space: pre;" direction="ltr">vaiUm</text></g><g stroke-linecap="round"><g transform="translate(21.850777108039665 337.77777777777646) rotate(0 204.11385644333217 -2.1082880957155794)"><path d="M1.14 -0.91 C69.02 -1.88, 340.28 -4.67, 407.95 -5.44 M0.28 1.22 C67.99 0.37, 339.64 -3.25, 407.3 -4.22" stroke="#000000" stroke-width="1" fill="none"></path></g><g transform="translate(21.850777108039665 337.77777777777646) rotate(0 204.11385644333217 -2.1082880957155794)"><path d="M377.74 7.39 C388.2 1.99, 398.03 -2.73, 407.05 -5.87 M379.42 5.83 C385.28 4.16, 393.36 0.75, 407.71 -3.26" stroke="#000000" stroke-width="1" fill="none"></path></g><g transform="translate(21.850777108039665 337.77777777777646) rotate(0 204.11385644333217 -2.1082880957155794)"><path d="M377.46 -13.13 C388.08 -11.22, 398.01 -8.64, 407.05 -5.87 M379.14 -14.69 C384.87 -11.58, 393.01 -10.22, 407.71 -3.26" stroke="#000000" stroke-width="1" fill="none"></path></g></g><g transform="translate(14.777777777777828 75.44444444444525) rotate(0 7 13)"><text x="14" y="18" font-family="Virgil, Segoe UI Emoji" font-size="20px" fill="#000000" text-anchor="end" style="white-space: pre;" direction="ltr">a</text></g><g transform="translate(10 171.0000000000009) rotate(0 5.5 13)"><text x="11" y="18" font-family="Virgil, Segoe UI Emoji" font-size="20px" fill="#000000" text-anchor="end" style="white-space: pre;" direction="ltr">b</text></g><g stroke-linecap="round"><g transform="translate(42.364124608722705 104.62614671943902) rotate(0 50.57548504280345 0.35692719847156695)"><path d="M-0.49 0.58 C16.53 0.7, 84.94 1.1, 101.64 1.24 M1.45 -0.16 C18.43 -0.43, 84.35 -0.48, 101.1 -0.53" stroke="#000000" stroke-width="1" fill="none"></path></g><g transform="translate(42.364124608722705 104.62614671943902) rotate(0 50.57548504280345 0.35692719847156695)"><path d="M73.9 11.09 C81.25 5.3, 88.85 4.24, 99.99 -0.41 M73.71 9.48 C80.29 7.72, 86.61 4.15, 100.47 -0.49" stroke="#000000" stroke-width="1" fill="none"></path></g><g transform="translate(42.364124608722705 104.62614671943902) rotate(0 50.57548504280345 0.35692719847156695)"><path d="M73.86 -9.43 C81.32 -9.94, 88.93 -5.71, 99.99 -0.41 M73.67 -11.04 C80.2 -7.74, 86.53 -6.23, 100.47 -0.49" stroke="#000000" stroke-width="1" fill="none"></path></g></g><g stroke-linecap="round"><g transform="translate(28.53251853341021 196.8871633126555) rotate(0 57.43264250947311 0.6118390344713589)"><path d="M-0.57 -0.56 C18.23 -0.64, 94.04 -0.48, 113.1 -0.4 M1.33 1.76 C20.49 1.87, 96.82 1.83, 115.44 1.16" stroke="#000000" stroke-width="1" fill="none"></path></g><g transform="translate(28.53251853341021 196.8871633126555) rotate(0 57.43264250947311 0.6118390344713589)"><path d="M86.47 10.65 C96.6 8.48, 106.25 6.08, 115.74 -0.18 M87.24 11.33 C95.87 9.43, 103.31 6.95, 115.71 0.89" stroke="#000000" stroke-width="1" fill="none"></path></g><g transform="translate(28.53251853341021 196.8871633126555) rotate(0 57.43264250947311 0.6118390344713589)"><path d="M86.16 -9.87 C96.41 -5.35, 106.16 -1.06, 115.74 -0.18 M86.92 -9.19 C95.57 -5.58, 103.1 -2.55, 115.71 0.89" stroke="#000000" stroke-width="1" fill="none"></path></g></g><g stroke-linecap="round" transform="translate(436.41666666666663 173.19444444444434) rotate(0 89.02777777777771 115.69444444444434)"><path d="M0 0 C0 0, 0 0, 0 0 M0 0 C0 0, 0 0, 0 0 M0.2 6.79 C1.57 3.3, 3.66 1.79, 4.79 -0.09 M0.14 6.66 C1.05 4.81, 2.07 2.98, 4.82 0.39 M1.61 13.48 C1.67 7.72, 4.79 5.15, 10.93 -1.01 M0.29 12.08 C3.6 6.95, 7.81 2.97, 10.48 -0.47 M-1.44 16.58 C4.98 13.2, 8.63 7.79, 16.14 1.61 M-0.93 18.05 C3.32 13.07, 8 9.22, 14.66 0.61 M-1.36 22.33 C5.45 18.45, 7.77 13.62, 19.67 -1.07 M-0.38 23.81 C4.62 18.54, 9.9 11.22, 20.89 -0.65 M-0.56 30.62 C10.21 18.12, 17.39 9.05, 28.16 -1.08 M-0.79 30.81 C9.72 19.34, 20.62 8.17, 25.53 0.39 M0.6 37.84 C8.04 29.71, 17.05 21.19, 32.85 -1.69 M-1.1 36.07 C7.06 29.81, 14.5 21.33, 31.65 0.1 M-1.21 40.85 C13.18 24.76, 28.05 9, 37.06 1.7 M0.33 42.75 C14.23 27.86, 27.41 11.93, 36.47 0.83 M-1.55 48.66 C9.84 40.31, 16.67 29.16, 42.08 0.91 M0.4 48.76 C12.36 34.9, 22.68 20.9, 43.25 -0.79 M0.91 54.52 C15.4 36.76, 28.89 23.02, 46.46 -1.57 M0.58 53.79 C14.96 36.67, 31.54 18.52, 46.74 0.49 M-0.13 59.29 C20.41 37.95, 37.71 15.8, 51.99 -1.3 M0.34 61.61 C20.05 37.87, 39.72 15.55, 53.17 0.8 M-1.47 67.59 C19.91 45.6, 37.45 23.85, 58.99 -0.45 M0.43 67.16 C13.62 51.38, 28.07 35.68, 57.58 -0.5 M0.28 71.4 C23.75 46.27, 47.73 20.86, 64.26 -0.44 M-0.41 73.09 C22.96 45.12, 47.36 18.97, 63.87 -0.52 M-0.63 77.71 C25.71 51.43, 48.46 26.21, 68.38 1.42 M-0.73 80.35 C25.1 50.72, 50.58 20.45, 68.18 -0.52 M2.13 84.61 C27.74 52.61, 60.15 18.22, 73.65 -0.68 M0.95 85.22 C24.55 57.07, 47.67 30.16, 74.8 0.4 M-1.7 92.7 C16.47 70.15, 33.97 52.76, 79.41 -1.67 M-0.49 91.65 C30.11 57.3, 60.77 22.32, 79.7 -0.39 M-1.7 97.21 C31.59 63.36, 60.3 26.87, 83.96 -2.25 M0.57 98.3 C20.82 75.66, 40.21 53.01, 84.36 -0.74 M-0.14 103.59 C18.47 80.05, 40.37 56.27, 91.91 -1.48 M-0.83 103.11 C23.14 77.52, 44.79 52.52, 89.28 0.59 M-1.31 111.19 C23.09 81.32, 47.7 56, 96.06 -1.44 M0.51 109.89 C23.27 83.26, 44.94 58.82, 95.9 0.26 M1.68 117.33 C21.01 90.21, 45.56 64.34, 100.79 0.18 M1.23 115.33 C36.62 73.75, 72.98 33.46, 100.02 0.65 M-1.7 120.72 C31.49 81.8, 65.08 44.87, 107.89 1.4 M0.85 121.36 C25.94 93.8, 51.96 63.79, 105.76 0.17 M-2.21 129.57 C25.7 99.07, 53.72 65.49, 112.01 -0.6 M-0.98 128.18 C39.94 81.64, 79.86 35.51, 110.99 -0.44 M-0.16 133.18 C42.81 83.61, 82.42 36.82, 117.8 -1.41 M0.29 134.84 C34.55 94.69, 69.39 55.25, 116.6 1 M1.24 141.63 C42.06 92.15, 84.45 43.64, 122.6 -1.76 M0.77 139.81 C45.16 88.77, 89.34 36.27, 121.24 0.61 M1.09 145.85 C32.12 111.96, 64.52 75.3, 127.14 0.15 M-0.51 146.01 C27.04 113.98, 56.07 80.94, 126.01 1.07 M0.18 152.97 C50.17 96.29, 97.81 38.09, 132.65 0.61 M-0.24 153.08 C44.34 101.45, 88.12 51.4, 131.85 0.56 M-1.58 158.74 C49.34 101.17, 99.34 46.77, 136.52 2.05 M0.34 158.82 C50.43 100.88, 102.37 41.19, 136.68 -0.43 M0.47 162.74 C54.53 99.95, 112.43 38.3, 141.58 0.57 M0.69 164.89 C40.17 118.32, 79.93 73.61, 143.52 -0.03 M0.42 171.39 C50.59 111.81, 102.74 52.98, 147.79 0.37 M-0.86 170.55 C37.26 127.97, 75.1 83.51, 148.44 0.96 M1.02 176.61 C34.36 138.84, 65.82 98.76, 154.68 -1.66 M-0.2 176.44 C39.17 133.15, 78.58 87.64, 153.61 0.43 M-1.49 183.79 C62.1 112.19, 123.75 40.93, 160.13 1.53 M-0.68 182.21 C54.45 120.5, 109.07 56.39, 158.93 -0.55 M1.12 190.52 C50.49 133.27, 98.31 75.83, 162.83 -1.15 M0.54 189.97 C64.1 115.45, 128.43 41.01, 164.65 -0.25 M1.1 193.59 C56.88 129.89, 115.28 62.75, 170.48 1.47 M-0.42 195.24 C45.76 143.51, 89.49 93.07, 169.98 0.08 M-0.23 201.87 C48.06 143.43, 99.54 87.59, 176.22 -1.52 M0.67 200.95 C45.99 147.5, 91.57 94.9, 175.67 0.37 M-0.7 206.47 C64.42 132.34, 132.29 54.46, 179.42 0.43 M0.32 207.43 C66.68 128.9, 133.33 52.47, 178.65 0.65 M1.18 213.46 C69.41 135.78, 135.77 56.43, 178.17 6.12 M0.22 214.01 C52.77 155.04, 103.49 96.49, 179.23 7.01 M-1.04 220.61 C53.94 155.98, 111.61 90.26, 179.69 11.47 M-0.32 220.29 C37.19 174.6, 74.6 130.82, 178.98 12.55 M1.57 223.99 C42.17 176.39, 82.78 127.05, 179.56 18.44 M0.52 225.5 C60.29 155.48, 120.57 86.57, 178.62 19.8 M0.77 230.55 C61.03 160.52, 125.17 87.07, 180.04 26.37 M-0.65 231.03 C45.58 178.07, 89.79 126.67, 179.39 26.41 M6.37 232.38 C50.09 177.71, 96.43 123.24, 179.27 32.15 M5.78 230.87 C66.93 160.19, 130.11 87.44, 179.95 30.75 M10.09 231.82 C60.5 172.4, 110.5 114.19, 179.12 36.61 M11.05 231.38 C65.28 167.13, 121.84 104.33, 179.68 37.63 M16.59 230.97 C66.63 176.76, 115.67 119.46, 180.96 43.72 M15.7 232.07 C68.78 170.03, 120.89 108.51, 179.08 43.84 M20.6 232.42 C74.62 169.9, 124.6 108.79, 180.72 48.37 M21.45 231.45 C58.09 189.73, 95.04 148.86, 179.97 50.63 M25.59 230.7 C83.42 168.47, 135.21 108.19, 180.48 54.88 M27.18 231.07 C69.36 183.91, 112.43 134.06, 179.15 55.48 M32.75 232.88 C72.31 183.25, 112.84 136.42, 180.55 60.85 M32.43 232.04 C74.91 182.46, 118.43 132.82, 180.21 61.38 M36.27 230.05 C70.42 192.95, 106.47 149.81, 177.87 66.98 M38.27 230.7 C79.51 181.91, 124.13 131.35, 178.74 67.57 M42.71 231.94 C82.81 186.18, 119.61 140.13, 178.2 73.11 M42.56 231.9 C71.87 200.18, 99.25 166.34, 179.45 74.69 M49.23 230.88 C98.65 172.24, 152.14 110.62, 181.02 82.08 M47.62 231.07 C93.65 178.52, 140.91 125.21, 179.48 80.67 M52.5 229.81 C103.37 173.4, 149.78 118.2, 177.03 88.55 M53.93 230.94 C81.43 199.39, 110.19 166.88, 178.65 86.19 M58.7 231.49 C106.58 175, 156.69 119.6, 180.17 92.35 M58.32 230.86 C87.07 201.14, 112.47 171.63, 180.29 92.28 M63.78 233.08 C101.3 188.69, 134.31 146.55, 180.94 100.51 M62.86 230.69 C102.57 187.81, 141.83 145.22, 178.16 98.71 M70.76 229.79 C99.43 195.71, 129.07 160.09, 178.45 106.18 M69.13 231.16 C107.2 188.97, 146.26 144.49, 179.63 104.91 M73.23 230.2 C106.05 195.46, 137.82 158.04, 180.03 112.29 M73.58 232.29 C103.54 197.54, 134.19 161.04, 179.14 110.35 M81.21 231.63 C102.04 205.83, 123.76 183.72, 178.38 115.63 M79.46 231.57 C104.05 202.64, 127.95 174.83, 179.45 117.61 M84.56 231.54 C109.95 198.86, 136.05 169.26, 178.3 122.47 M84.29 232.38 C103.79 208.66, 121.59 186.59, 180.4 122.9 M90.15 231.61 C112.2 206.82, 131.87 180.39, 179.29 128.24 M89.1 230.99 C113.01 205.1, 137.19 176.68, 179.6 128.68 M96.56 233.39 C118.99 207.12, 139.54 180.98, 180.81 133.57 M95.16 231.14 C121.9 198.99, 150.92 169.16, 179.72 134.67 M100.7 229.96 C128.89 203.74, 154.55 170.94, 177.61 139.75 M100.74 232.61 C116.84 211.06, 134.99 190.66, 179.93 142.2 M107.07 229.99 C132.24 200.23, 159.82 169, 181.02 148.8 M106.33 232.26 C124.37 208, 145.5 185.98, 179.18 147.25 M111.08 233.17 C129.59 209.16, 152.26 184.87, 177.51 155.1 M112.11 232.39 C137.79 201.02, 162.43 170.65, 178.92 153.02 M116.98 229.52 C131.59 215.45, 145.24 197.76, 179.43 161.04 M115.89 230.99 C141.93 202.66, 166.06 174.92, 179.81 160.5 M121.21 230.86 C137.31 211.84, 156.38 189.8, 178.19 165.13 M122.54 232.09 C136.49 214.54, 151.7 199.08, 179.02 165.52 M126.27 230.09 C145.54 207.42, 166.8 187.74, 179.64 173.38 M127.92 232.07 C138.79 218.27, 151.94 204.09, 179.64 171.09 M132.1 232.63 C149.82 209.95, 165.15 193.27, 177.28 179.41 M132.34 231.98 C151.69 209.87, 169.89 189.69, 179.98 178.4 M137.97 231.75 C154.03 215.58, 170.14 193.82, 178.94 184.09 M138.46 231.81 C147.1 219.18, 157.31 208.73, 180.31 183.45 M141.81 231.98 C150.44 220.89, 162.22 211.21, 177.43 191.17 M142.78 230.87 C151.29 220.58, 161.15 211.51, 179.51 189.59 M150.16 232.48 C160.52 219.5, 170.06 204.67, 179.72 195.37 M149.52 232.03 C156.65 223.36, 163.27 214.39, 180.43 196.55 M153.46 230.39 C164.82 220.83, 171.21 209.08, 178.38 201.83 M154.1 232.11 C160.86 223.56, 167.12 215.4, 179.29 202.82 M159.99 232.21 C164.42 223.58, 172.41 215.69, 180.75 210.13 M159.07 232.1 C163.9 226.8, 167.02 221.64, 178.96 208.65 M163.23 233.23 C167.68 227.01, 170.86 223.56, 179.61 214 M163.52 231.57 C167.84 228.92, 171.23 224.18, 179.66 214.62 M171.18 232.34 C172.7 228.52, 172.92 225.44, 179.64 220.85 M169.34 231 C172.53 227.8, 174.88 225.04, 179.57 220.38 M175.46 230.99 C177.12 230.16, 178.64 227.65, 179.59 226.99 M175.06 231.62 C175.79 230.37, 177.09 229.35, 179.33 226.56" stroke="#ced4da" stroke-width="0.5" fill="none"></path><path d="M1.18 1.15 C43.16 -0.51, 85.77 1.98, 179.64 0.25 M0.97 0.44 C53.76 -0.82, 105.15 -0.57, 177.54 0.81 M178.1 -0.37 C176.99 77.21, 175.71 154.39, 177.87 229.94 M178.15 -0.78 C177.79 73.7, 178.31 147.7, 177.82 231.35 M178.93 229.6 C136.88 231.87, 94.11 230.07, 0.86 230.97 M178.05 231.38 C141.27 231.95, 104.47 233.09, -0.16 231.78 M0.55 232.47 C2.28 165.01, 3.27 101.77, 1.19 -1.05 M0.32 231.89 C2.42 183.03, 2.38 133.37, -0.33 -0.04" stroke="#000000" stroke-width="1" fill="none"></path></g><g stroke-linecap="round"><g transform="translate(612.2499999999997 217.7777777777792) rotate(0 59.43933424199929 -0.1853869535029844)"><path d="M1.04 0.57 C20.32 0.24, 97.12 -0.72, 116.55 -0.94 M0.12 -0.17 C19.7 0.13, 99.29 0.04, 118.76 0.1" stroke="#000000" stroke-width="1" fill="none"></path></g><g transform="translate(612.2499999999997 217.7777777777792) rotate(0 59.43933424199929 -0.1853869535029844)"><path d="M91.52 8.75 C99.32 6.52, 110.04 0.84, 117.14 0.57 M90.32 10.53 C102.44 5.48, 112.2 1.48, 117.92 -0.72" stroke="#000000" stroke-width="1" fill="none"></path></g><g transform="translate(612.2499999999997 217.7777777777792) rotate(0 59.43933424199929 -0.1853869535029844)"><path d="M91.53 -11.77 C99.51 -6.42, 110.22 -4.51, 117.14 0.57 M90.34 -9.99 C102.57 -7.01, 112.32 -2.99, 117.92 -0.72" stroke="#000000" stroke-width="1" fill="none"></path></g></g><g stroke-linecap="round"><g transform="translate(623.3611111111107 356.66666666666606) rotate(0 206.05423030470763 2.8921496500324793)"><path d="M-0.02 0.23 C68.78 1.21, 344.55 5.49, 413.6 6.48 M-1.49 -0.7 C67.11 -0.09, 343.54 4.08, 412.79 4.89" stroke="#000000" stroke-width="1" fill="none"></path></g><g transform="translate(623.3611111111107 356.66666666666606) rotate(0 206.05423030470763 2.8921496500324793)"><path d="M384.85 15.22 C396.49 12.78, 406.33 8.24, 411.98 6.04 M383.75 14.64 C391.04 13.79, 396.01 11.46, 412.57 5.42" stroke="#000000" stroke-width="1" fill="none"></path></g><g transform="translate(623.3611111111107 356.66666666666606) rotate(0 206.05423030470763 2.8921496500324793)"><path d="M385.12 -5.29 C396.77 -0.22, 406.51 2.75, 411.98 6.04 M384.03 -5.88 C391.32 -2.18, 396.23 0.04, 412.57 5.42" stroke="#000000" stroke-width="1" fill="none"></path></g></g><g transform="translate(1009.8333333333329 304.7777777777792) rotate(0 24.5 13)"><text x="49" y="18" font-family="Virgil, Segoe UI Emoji" font-size="20px" fill="#000000" text-anchor="end" style="white-space: pre;" direction="ltr">soma</text></g><g transform="translate(546.3333333333336 205.8888888888896) rotate(0 28 13)"><text x="56" y="18" font-family="Virgil, Segoe UI Emoji" font-size="20px" fill="#000000" text-anchor="end" style="white-space: pre;" direction="ltr">vaiUm</text></g><g stroke-linecap="round"><g transform="translate(429.88888888888926 98.88888888888869) rotate(0 186.05130729074216 -0.4622070646432803)"><path d="M0.09 0.42 C62.23 0.56, 311.28 0.44, 373.42 0.47 M-1.31 -0.41 C60.66 -0.6, 310.54 -1.23, 372.78 -1.41" stroke="#000000" stroke-width="1" fill="none"></path></g></g><g stroke-linecap="round"><g transform="translate(738.7777777777779 216.66666666666697) rotate(0 34.70127948746085 0.0018734557597781532)"><path d="M-0.27 0.96 C11.52 0.98, 57.8 0.77, 69.68 0.77 M1.78 0.42 C13.49 0.04, 57.07 -0.73, 68.56 -0.95" stroke="#000000" stroke-width="1" fill="none"></path></g></g><g stroke-linecap="round"><g transform="translate(805.4444444444447 216.66666666666697) rotate(0 -0.39377221682104846 -27.100641123039622)"><path d="M-0.2 0.2 C-0.54 -8.83, -1.24 -45.09, -1.14 -54.4 M-1.77 -0.75 C-1.84 -9.54, 0.71 -43.8, 0.98 -52.83" stroke="#000000" stroke-width="1" fill="none"></path></g></g><g stroke-linecap="round"><g transform="translate(802.1111111111114 98.8888888888896) rotate(0 -0.05759981115716073 13.671954172354162)"><path d="M0.85 0.8 C0.83 4.91, 0.3 21.55, 0.03 25.61 M-0.17 0.17 C-0.35 4.41, -1.22 22.82, -0.9 27.18" stroke="#000000" stroke-width="1" fill="none"></path></g></g><g stroke-linecap="round"><g transform="translate(802.1111111111114 125.55555555555566) rotate(0 21.225508110142414 0.03899912453516663)"><path d="M-0.38 0.89 C6.95 1.02, 35.73 0.85, 42.83 0.83 M1.62 0.31 C8.94 0.11, 35.56 -0.61, 42.21 -0.86" stroke="#000000" stroke-width="1" fill="none"></path></g></g><g stroke-linecap="round"><g transform="translate(803.2222222222223 164.44444444444525) rotate(0 21.024692122555393 -0.25885911743171164)"><path d="M-1.15 -0.42 C6.08 -0.61, 35.98 -0.46, 43.2 -0.25 M0.44 -1.68 C7.61 -1.77, 35.95 1.05, 42.77 1.16" stroke="#000000" stroke-width="1" fill="none"></path></g></g><g transform="translate(838.7777777777779 101.11111111111131) rotate(0 5 39.44444444444434)" stroke="none"><path fill="#000000" d="M 1.97,-0.78 Q 1.97,-0.78 2.59,0.81 3.22,2.42 3.59,3.90 3.96,5.38 4.58,7.05 5.21,8.73 5.78,10.90 6.36,13.07 6.66,15.04 6.96,17.01 7.42,18.29 7.88,19.56 8.13,21.28 8.38,23.01 8.77,24.51 9.15,26.01 9.39,27.44 9.64,28.87 10.03,29.87 10.43,30.86 10.69,32.19 10.95,33.52 10.99,35.40 11.02,37.28 11.36,38.45 11.70,39.61 11.91,40.97 12.13,42.34 12.23,43.59 12.34,44.85 12.04,46.34 11.75,47.84 11.66,49.68 11.58,51.51 11.53,53.00 11.48,54.48 11.12,56.06 10.76,57.63 10.64,59.45 10.53,61.28 10.09,62.44 9.64,63.59 9.12,65.47 8.60,67.34 8.63,68.94 8.66,70.54 8.17,71.75 7.68,72.96 7.13,74.18 6.58,75.39 6.61,77.17 6.64,78.96 6.54,79.48 6.45,80.01 6.18,80.48 5.92,80.95 5.52,81.31 5.13,81.67 4.64,81.88 4.14,82.10 3.61,82.14 3.08,82.19 2.55,82.06 2.03,81.94 1.58,81.65 1.13,81.36 0.79,80.95 0.45,80.53 0.26,80.03 0.08,79.52 0.06,78.99 0.04,78.45 0.20,77.94 0.35,77.43 0.66,76.99 0.97,76.55 1.41,76.24 1.84,75.92 2.35,75.76 2.87,75.60 3.40,75.61 3.94,75.63 4.44,75.81 4.95,75.99 5.37,76.32 5.79,76.66 6.08,77.11 6.37,77.56 6.50,78.08 6.63,78.60 6.59,79.13 6.55,79.67 6.34,80.16 6.13,80.66 5.77,81.06 5.42,81.46 4.95,81.72 4.49,81.99 3.96,82.09 3.43,82.20 2.90,82.13 2.37,82.06 1.89,81.82 1.41,81.59 1.03,81.21 0.64,80.83 0.40,80.35 0.16,79.87 0.09,79.34 0.01,78.81 0.01,78.81 0.01,78.81 0.22,76.32 0.43,73.83 0.99,72.75 1.56,71.67 2.02,70.35 2.49,69.02 2.67,67.60 2.85,66.18 3.38,65.23 3.90,64.27 4.30,62.68 4.70,61.09 5.04,60.07 5.38,59.05 5.87,56.71 6.35,54.37 6.35,52.84 6.35,51.30 6.42,49.86 6.49,48.41 6.98,46.73 7.46,45.04 7.44,43.97 7.42,42.91 7.34,41.81 7.26,40.72 6.90,39.10 6.54,37.48 6.36,34.86 6.18,32.23 5.79,30.83 5.41,29.42 5.31,28.19 5.22,26.97 4.81,25.22 4.40,23.48 4.28,22.08 4.16,20.68 3.75,19.12 3.34,17.56 3.09,15.86 2.85,14.16 2.14,12.22 1.44,10.27 0.56,8.27 -0.32,6.27 -0.49,5.12 -0.67,3.96 -1.32,2.37 -1.97,0.78 -2.03,0.54 -2.10,0.29 -2.10,0.03 -2.11,-0.21 -2.05,-0.46 -1.99,-0.71 -1.88,-0.94 -1.76,-1.17 -1.60,-1.36 -1.43,-1.56 -1.22,-1.71 -1.02,-1.86 -0.78,-1.95 -0.54,-2.05 -0.29,-2.08 -0.03,-2.12 0.21,-2.09 0.47,-2.06 0.71,-1.98 0.95,-1.89 1.16,-1.75 1.37,-1.61 1.55,-1.42 1.72,-1.23 1.84,-1.01 1.97,-0.78 1.97,-0.78 L 1.97,-0.78 Z"></path></g><g transform="translate(839.8888888888893 100) rotate(0 42.777777777777715 22.777777777778283)" stroke="none"><path fill="#000000" d="M -0.62,-2.51 Q -0.62,-2.51 0.65,-2.83 1.92,-3.16 3.29,-3.34 4.66,-3.52 6.23,-3.25 7.79,-2.98 9.39,-2.91 10.98,-2.84 12.20,-2.41 13.42,-1.98 15.11,-1.53 16.81,-1.09 18.98,-0.48 21.16,0.12 22.33,0.59 23.50,1.05 25.28,1.72 27.05,2.38 29.89,3.33 32.72,4.28 34.17,4.95 35.61,5.63 37.46,6.68 39.31,7.73 41.62,8.85 43.92,9.97 45.69,11.17 47.47,12.36 49.01,13.09 50.56,13.81 52.52,14.85 54.49,15.90 56.10,17.01 57.71,18.12 59.79,19.18 61.87,20.25 63.56,21.41 65.26,22.57 66.88,23.68 68.50,24.79 69.82,25.49 71.15,26.20 72.36,26.77 73.57,27.34 74.56,27.94 75.54,28.53 77.03,29.68 78.52,30.82 79.61,32.17 80.69,33.52 82.10,34.78 83.52,36.03 84.17,37.15 84.82,38.27 85.44,39.39 86.05,40.52 87.29,43.01 88.54,45.50 88.64,46.01 88.75,46.52 88.69,47.03 88.63,47.55 88.41,48.02 88.18,48.48 87.82,48.86 87.46,49.23 87.00,49.47 86.54,49.71 86.03,49.79 85.52,49.87 85.01,49.78 84.50,49.69 84.04,49.44 83.59,49.19 83.23,48.81 82.88,48.43 82.67,47.96 82.46,47.49 82.40,46.97 82.35,46.46 82.47,45.95 82.59,45.45 82.86,45.01 83.13,44.56 83.53,44.23 83.93,43.90 84.41,43.71 84.89,43.53 85.41,43.50 85.93,43.48 86.43,43.62 86.92,43.77 87.35,44.06 87.78,44.36 88.09,44.77 88.40,45.19 88.56,45.68 88.72,46.17 88.71,46.69 88.71,47.21 88.54,47.70 88.37,48.19 88.05,48.60 87.73,49.01 87.30,49.30 86.87,49.58 86.37,49.72 85.87,49.85 85.35,49.82 84.83,49.78 84.35,49.59 83.87,49.39 83.48,49.05 83.09,48.71 82.83,48.26 82.56,47.82 82.56,47.82 82.56,47.82 81.89,46.54 81.22,45.27 80.73,43.65 80.25,42.04 79.77,41.00 79.30,39.95 78.61,38.67 77.93,37.39 76.64,36.13 75.35,34.86 74.79,33.97 74.22,33.07 72.98,31.89 71.74,30.71 70.54,29.97 69.35,29.24 68.01,28.36 66.67,27.49 65.02,26.38 63.38,25.27 61.90,24.24 60.43,23.20 58.05,22.09 55.68,20.99 54.32,20.00 52.97,19.01 50.96,18.11 48.96,17.22 47.18,16.39 45.40,15.56 43.86,14.61 42.33,13.67 39.84,12.74 37.35,11.81 35.45,11.06 33.55,10.30 32.18,9.73 30.81,9.16 29.27,8.66 27.73,8.17 25.98,7.84 24.23,7.52 22.88,6.96 21.52,6.40 19.68,5.61 17.84,4.81 16.48,4.61 15.11,4.41 13.98,4.07 12.86,3.73 11.71,3.22 10.56,2.70 8.58,2.45 6.60,2.21 4.89,2.04 3.18,1.88 1.90,2.19 0.62,2.51 0.31,2.55 0.00,2.58 -0.30,2.55 -0.61,2.51 -0.90,2.40 -1.19,2.29 -1.45,2.12 -1.71,1.94 -1.91,1.71 -2.12,1.47 -2.27,1.20 -2.41,0.92 -2.49,0.62 -2.56,0.32 -2.57,0.00 -2.57,-0.30 -2.49,-0.60 -2.42,-0.91 -2.27,-1.18 -2.13,-1.46 -1.92,-1.69 -1.72,-1.93 -1.46,-2.11 -1.21,-2.28 -0.91,-2.40 -0.62,-2.51 -0.62,-2.51 L -0.62,-2.51 Z"></path></g><g transform="translate(847.6666666666671 182.22222222222263) rotate(0 39.44444444444434 -19.444444444444343)" stroke="none"><path fill="#000000" d="M 0,-1.56 Q 0,-1.56 3.19,-1.52 6.38,-1.49 9.02,-1.46 11.65,-1.44 15.27,-1.74 18.88,-2.04 23.26,-2.79 27.64,-3.55 30.78,-4.18 33.92,-4.81 37.04,-6.31 40.15,-7.81 42.46,-9.08 44.77,-10.36 47.00,-11.84 49.23,-13.32 51.15,-14.59 53.08,-15.87 54.80,-17.33 56.51,-18.78 58.52,-20.68 60.53,-22.57 62.02,-24.02 63.51,-25.47 64.38,-26.49 65.26,-27.51 66.61,-28.87 67.96,-30.23 68.79,-31.20 69.63,-32.17 70.71,-33.03 71.80,-33.89 72.92,-35.49 74.04,-37.09 75.87,-39.00 77.71,-40.90 78.06,-41.04 78.41,-41.17 78.79,-41.19 79.17,-41.20 79.53,-41.10 79.89,-40.99 80.20,-40.77 80.51,-40.56 80.74,-40.25 80.96,-39.95 81.08,-39.59 81.19,-39.23 81.19,-38.85 81.18,-38.47 81.06,-38.12 80.93,-37.76 80.70,-37.46 80.47,-37.17 80.15,-36.96 79.83,-36.75 79.47,-36.66 79.10,-36.56 78.73,-36.59 78.35,-36.61 78.00,-36.76 77.65,-36.90 77.37,-37.15 77.08,-37.40 76.89,-37.72 76.70,-38.05 76.63,-38.42 76.55,-38.79 76.60,-39.16 76.64,-39.54 76.81,-39.88 76.97,-40.22 77.23,-40.49 77.50,-40.76 77.83,-40.93 78.17,-41.11 78.54,-41.16 78.92,-41.22 79.29,-41.15 79.66,-41.09 79.99,-40.90 80.32,-40.72 80.58,-40.44 80.83,-40.17 80.99,-39.82 81.14,-39.48 81.18,-39.10 81.21,-38.72 81.13,-38.36 81.04,-37.99 80.84,-37.67 80.64,-37.35 80.35,-37.11 80.06,-36.87 80.06,-36.87 80.06,-36.87 78.07,-34.86 76.07,-32.85 75.06,-31.77 74.06,-30.69 73.10,-30.16 72.15,-29.62 71.18,-28.79 70.21,-27.97 68.83,-26.62 67.46,-25.26 66.41,-24.41 65.37,-23.55 63.85,-22.10 62.34,-20.65 60.28,-18.70 58.22,-16.76 56.39,-15.21 54.55,-13.66 52.63,-12.38 50.70,-11.10 48.39,-9.56 46.07,-8.01 43.69,-6.69 41.31,-5.37 37.90,-3.76 34.49,-2.15 31.30,-1.48 28.12,-0.82 23.62,-0.03 19.13,0.76 15.39,1.10 11.66,1.44 9.02,1.46 6.38,1.49 3.19,1.52 0,1.56 -0.18,1.53 -0.37,1.51 -0.54,1.45 -0.72,1.38 -0.88,1.27 -1.03,1.16 -1.16,1.02 -1.28,0.88 -1.37,0.72 -1.46,0.55 -1.50,0.37 -1.55,0.18 -1.55,-0.00 -1.55,-0.18 -1.50,-0.37 -1.46,-0.55 -1.37,-0.72 -1.28,-0.88 -1.16,-1.02 -1.03,-1.16 -0.88,-1.27 -0.72,-1.38 -0.54,-1.45 -0.37,-1.51 -0.18,-1.53 0.00,-1.56 0.00,-1.56 L 0,-1.56 Z"></path></g><g stroke-linecap="round"><g transform="translate(929.8888888888893 145.55555555555657) rotate(0 52.884230652575184 -0.5153752251626429)"><path d="M1 0.52 C18.81 0.34, 88.16 0.1, 105.71 -0.01 M0.06 -0.25 C17.83 -0.22, 87.2 -1.26, 104.84 -1.55" stroke="#000000" stroke-width="1" fill="none"></path></g><g transform="translate(929.8888888888893 145.55555555555657) rotate(0 52.884230652575184 -0.5153752251626429)"><path d="M77.68 9.39 C84.27 7.89, 89.75 3.27, 103.42 -3.4 M77.32 10.06 C83.92 5.69, 90.96 4.84, 104.33 -0.96" stroke="#000000" stroke-width="1" fill="none"></path></g><g transform="translate(929.8888888888893 145.55555555555657) rotate(0 52.884230652575184 -0.5153752251626429)"><path d="M77.36 -11.13 C84.2 -8.44, 89.74 -8.87, 103.42 -3.4 M77 -10.46 C83.62 -9.7, 90.74 -5.42, 104.33 -0.96" stroke="#000000" stroke-width="1" fill="none"></path></g></g><g transform="translate(997.4444444444445 99.22222222222354) rotate(0 28 13)"><text x="56" y="18" font-family="Virgil, Segoe UI Emoji" font-size="20px" fill="#000000" text-anchor="end" style="white-space: pre;" direction="ltr">vaiUm</text></g><g transform="translate(550.9444444444447 339.22222222222354) rotate(0 24.5 13)"><text x="49" y="18" font-family="Virgil, Segoe UI Emoji" font-size="20px" fill="#000000" text-anchor="end" style="white-space: pre;" direction="ltr">soma</text></g><g transform="translate(449.2222222222225 216.55555555555566) rotate(0 7 13)"><text x="14" y="18" font-family="Virgil, Segoe UI Emoji" font-size="20px" fill="#000000" text-anchor="end" style="white-space: pre;" direction="ltr">a</text></g><g transform="translate(453.3333333333336 324.33333333333394) rotate(0 5.5 13)"><text x="11" y="18" font-family="Virgil, Segoe UI Emoji" font-size="20px" fill="#000000" text-anchor="end" style="white-space: pre;" direction="ltr">b</text></g><g transform="translate(159.22222222222229 94.33333333333394) rotate(0 7 13)"><text x="14" y="18" font-family="Virgil, Segoe UI Emoji" font-size="20px" fill="#000000" text-anchor="end" style="white-space: pre;" direction="ltr">a</text></g><g transform="translate(158.88888888888903 187.66666666666697) rotate(0 5.5 13)"><text x="11" y="18" font-family="Virgil, Segoe UI Emoji" font-size="20px" fill="#000000" text-anchor="end" style="white-space: pre;" direction="ltr">b</text></g><g stroke-linecap="round" transform="translate(64.3333333333336 10) rotate(0 451.1111111111111 213.88888888888914)"><path d="M-0.23 -0.07 C185.55 0.75, 370.97 1.11, 902.31 0.57 M-0.18 -0.08 C314.23 -0.07, 628.81 -0.53, 902.34 -0.32 M902.68 0.49 C904.61 93, 903.66 186.45, 901.56 428.42 M902.05 -0.38 C900.8 143.15, 900.85 285.03, 901.87 428.25 M903 427.73 C653.5 427.41, 406.11 427.31, -0.1 427.02 M901.94 427.42 C676.99 429.8, 451.54 429.62, 0.13 427.59 M0.51 427.59 C2.86 331.2, 1.39 234.41, -0.09 -0.5 M0.42 427.73 C-0.52 290.99, -0.13 155.15, 0.26 -0.36" stroke="#000000" stroke-width="1" fill="none"></path></g><g transform="translate(12.222222222222399 302.1111111111113) rotate(0 5.5 13)"><text x="11" y="18" font-family="Virgil, Segoe UI Emoji" font-size="20px" fill="#000000" text-anchor="end" style="white-space: pre;" direction="ltr">c</text></g><g transform="translate(845.0000000000003 400.9999999999991) rotate(0 48 13)"><text x="96" y="18" font-family="Virgil, Segoe UI Emoji" font-size="20px" fill="#000000" text-anchor="end" style="white-space: pre;" direction="ltr">full-Adder</text></g></svg>