<svg version="1.1" xmlns="http://www.w3.org/2000/svg" viewBox="0 0 779.9347696188054 356.3211012984375" width="1559.8695392376108" height="712.642202596875">
  <!-- svg-source:excalidraw -->
  
  <defs>
    <style>
      @font-face {
        font-family: "Virgil";
        src: url("https://excalidraw.com/Virgil.woff2");
      }
      @font-face {
        font-family: "Cascadia";
        src: url("https://excalidraw.com/Cascadia.woff2");
      }
    </style>
  </defs>
  <rect x="0" y="0" width="779.9347696188054" height="356.3211012984375" fill="#ffffff"></rect><g stroke-linecap="round" transform="translate(268.15833876607815 103.98246535609724) rotate(0 140.6216693402851 87.2356203287145)"><path d="M-0.72 0.63 C78 -0.78, 155.44 -1.19, 281.91 -1.26 M-0.45 -0.53 C100.35 -2.12, 199.33 -1.6, 280.64 0 M279.26 1.93 C281 55.01, 280.6 106.75, 281.74 174.15 M280.49 -0.6 C282.72 56.38, 283.07 115.03, 281.29 173.55 M280.24 173.15 C177.54 176.35, 74.48 175.9, -0.71 175.74 M281.43 174.91 C220.04 173.42, 156.84 174.03, 0.26 175.21 M-0.8 175.46 C-1.95 126.77, 0.56 74.38, -0.36 -1.85 M-0.72 175.41 C0.39 136.6, 1.51 97.81, -0.56 0.48" stroke="#000000" stroke-width="1" fill="none"></path></g><g transform="translate(278.44705461058595 125.07238644534846) rotate(0 6 13)"><text x="6" y="18" font-family="Virgil, Segoe UI Emoji" font-size="20px" fill="#000000" text-anchor="middle" style="white-space: pre;" direction="ltr">x</text></g><g transform="translate(285.6658311099934 227.0603210356312) rotate(0 5 13)"><text x="5" y="18" font-family="Virgil, Segoe UI Emoji" font-size="20px" fill="#000000" text-anchor="middle" style="white-space: pre;" direction="ltr">y</text></g><g transform="translate(486.3105191890195 128.80365234499368) rotate(0 24.5 13)"><text x="24.5" y="18" font-family="Virgil, Segoe UI Emoji" font-size="20px" fill="#000000" text-anchor="middle" style="white-space: pre;" direction="ltr">soma</text></g><g transform="translate(487.7980297887825 225.81656573575128) rotate(0 25.5 13)"><text x="25.5" y="18" font-family="Virgil, Segoe UI Emoji" font-size="20px" fill="#000000" text-anchor="middle" style="white-space: pre;" direction="ltr">carry</text></g><g stroke-linecap="round"><g transform="translate(128.97764212539823 88.05344034973314) rotate(0 0.18909272010273526 51.15463293860739)"><path d="M-0.75 0.65 C-0.89 17.72, -1.06 84.22, -0.99 101.23 M1.05 -0.06 C1.29 17.25, 1.59 85.56, 1.2 102.37" stroke="#000000" stroke-width="1" fill="none"></path></g></g><g stroke-linecap="round"><g transform="translate(130.22139742527975 187.5538643402524) rotate(0 20.857201653383925 -12.529424106929582)"><path d="M-0.05 0.99 C7.31 -3.31, 36.19 -21.62, 43.25 -26.05 M-1.54 0.47 C5.83 -3.72, 35.63 -20.94, 42.81 -25.13" stroke="#000000" stroke-width="1" fill="none"></path></g></g><g stroke-linecap="round"><g transform="translate(173.75283292113215 111.68479104747894) rotate(180 -20.474000748275103 -12.772303128939711)"><path d="M1.09 -0.19 C-5.71 -4.32, -34.42 -19.58, -41.5 -23.8 M0.21 -1.33 C-6.62 -5.86, -35.05 -21.49, -42.04 -25.36" stroke="#000000" stroke-width="1" fill="none"></path></g></g><g stroke-linecap="round"><g transform="translate(176.13667384078758 108.73829223356188) rotate(0 -0.3401942036932155 27.26853720303643)"><path d="M-1.13 0.86 C-1.31 9.79, -0.36 45.6, -0.04 54.26 M0.47 0.27 C0.05 8.79, -1 43.63, -1.01 52.55" stroke="#000000" stroke-width="1" fill="none"></path></g></g><g stroke-linecap="round"><g transform="translate(34.74371629867517 154.55884076702387) rotate(0 46.26629123026572 0.026947671426569286)"><path d="M0.02 -0.32 C15.77 -0.16, 78.54 -0.2, 93.97 0.03 M-1.43 -1.53 C14.29 -1.09, 78.06 1.44, 93.56 1.58" stroke="#000000" stroke-width="1" fill="none"></path></g><g transform="translate(34.74371629867517 154.55884076702387) rotate(0 46.26629123026572 0.026947671426569286)"><path d="M64.58 12.82 C72.53 8.04, 81.59 6.1, 92.8 0.16 M64.5 11.08 C72.21 9.17, 79.61 6.75, 94.53 1.44" stroke="#000000" stroke-width="1" fill="none"></path></g><g transform="translate(34.74371629867517 154.55884076702387) rotate(0 46.26629123026572 0.026947671426569286)"><path d="M65.13 -7.69 C72.78 -7.21, 81.7 -3.89, 92.8 0.16 M65.04 -9.43 C72.63 -6.27, 79.89 -3.62, 94.53 1.44" stroke="#000000" stroke-width="1" fill="none"></path></g></g><g transform="translate(10 157.0546516328086) rotate(0 7.5 13)"><text x="7.5" y="18" font-family="Virgil, Segoe UI Emoji" font-size="20px" fill="#000000" text-anchor="middle" style="white-space: pre;" direction="ltr">0</text></g><g stroke-linecap="round"><g transform="translate(168.38251761340746 238.86145378276888) rotate(0 46.68201567007293 0.7038694118118656)"><path d="M1.08 0.91 C16.42 1.02, 77.98 -0.01, 93.18 -0.07 M0.18 0.34 C15.29 0.72, 77.2 1.74, 92.37 1.42" stroke="#000000" stroke-width="1" fill="none"></path></g><g transform="translate(168.38251761340746 238.86145378276888) rotate(0 46.68201567007293 0.7038694118118656)"><path d="M65.68 12.09 C75.2 6.34, 87.27 3.33, 91.83 0.14 M64.69 10.81 C71.68 8.17, 79.66 5.04, 91.59 0.77" stroke="#000000" stroke-width="1" fill="none"></path></g><g transform="translate(168.38251761340746 238.86145378276888) rotate(0 46.68201567007293 0.7038694118118656)"><path d="M65.71 -8.44 C75.08 -6.11, 87.15 -1.05, 91.83 0.14 M64.71 -9.71 C71.52 -6.81, 79.49 -4.4, 91.59 0.77" stroke="#000000" stroke-width="1" fill="none"></path></g></g><g transform="translate(172.56739940452212 249.02113855907555) rotate(0 3 13)"><text x="3" y="18" font-family="Virgil, Segoe UI Emoji" font-size="20px" fill="#000000" text-anchor="middle" style="white-space: pre;" direction="ltr">1</text></g><g stroke-linecap="round"><g transform="translate(39.68413411638937 104.7891960235811) rotate(0 44.362436062476775 2.231101362083791)"><path d="M-0.72 0.98 C14.28 1.5, 74.21 2.46, 89.44 2.6 M1.1 0.45 C15.95 1.2, 73.38 3.66, 88.26 4.01" stroke="#000000" stroke-width="1" fill="none"></path></g><g transform="translate(39.68413411638937 104.7891960235811) rotate(0 44.362436062476775 2.231101362083791)"><path d="M61.36 12.53 C66.69 12.39, 72.68 10.23, 88.87 3.33 M59.36 13.52 C68.27 10.12, 77.8 8.11, 88.16 3.08" stroke="#000000" stroke-width="1" fill="none"></path></g><g transform="translate(39.68413411638937 104.7891960235811) rotate(0 44.362436062476775 2.231101362083791)"><path d="M62.07 -7.98 C67.13 -2.87, 72.94 0.23, 88.87 3.33 M60.07 -6.99 C68.79 -4.24, 78.11 -0.1, 88.16 3.08" stroke="#000000" stroke-width="1" fill="none"></path></g></g><g stroke-linecap="round"><g transform="translate(41.544925758275326 105.47960515203704) rotate(0 -0.2543243274092788 -36.89300944772822)"><path d="M-1.09 -0.32 C-0.93 -12.43, 0.46 -61.24, 0.58 -73.47 M0.54 -1.53 C0.63 -13.42, 0.25 -60.39, -0.06 -72.27" stroke="#000000" stroke-width="1" fill="none"></path></g></g><g stroke-linecap="round"><g transform="translate(43.34934116379611 33.892975793178266) rotate(0 362.46293965348656 0.2796571233584473)"><path d="M-0.13 -0.41 C120.49 -0.17, 603.41 1.79, 724.33 2.24 M-1.66 -1.68 C119.29 -1.87, 605.51 0, 726.59 0.3" stroke="#000000" stroke-width="1" fill="none"></path></g></g><g stroke-linecap="round"><g transform="translate(175.53704019740144 135.4405093070509) rotate(0 44.684592152319965 0.0770755872135851)"><path d="M0.22 1.09 C15.18 0.97, 75.55 -0.62, 90.5 -0.94 M-1.13 0.62 C13.58 0.64, 73.78 0.2, 89.35 0.11" stroke="#000000" stroke-width="1" fill="none"></path></g><g transform="translate(175.53704019740144 135.4405093070509) rotate(0 44.684592152319965 0.0770755872135851)"><path d="M63.05 9.91 C69.77 5.11, 80.08 1.73, 89.16 -1.69 M60.69 11.46 C69.61 6.86, 77.97 4.97, 89.66 0.43" stroke="#000000" stroke-width="1" fill="none"></path></g><g transform="translate(175.53704019740144 135.4405093070509) rotate(0 44.684592152319965 0.0770755872135851)"><path d="M62.91 -10.62 C69.65 -8.04, 80.01 -4.06, 89.16 -1.69 M60.56 -9.06 C69.33 -7.23, 77.73 -2.67, 89.66 0.43" stroke="#000000" stroke-width="1" fill="none"></path></g></g><g stroke-linecap="round" transform="translate(631.1748391101737 116.0516668001219) rotate(0 38.171783685511514 60.59013283414606)"><path d="M0 0 C0 0, 0 0, 0 0 M0 0 C0 0, 0 0, 0 0 M-0.99 6.53 C1.29 3.69, 4.06 2.24, 5.41 0.13 M-0.17 6.66 C1.25 5.05, 2.39 3.43, 5.08 0.54 M0.45 13.37 C1.99 8.64, 5.35 7.16, 10.97 0.55 M-0.25 12.26 C3.16 7.49, 6.92 4.41, 10.47 -0.21 M-1.71 18.74 C5.67 14.11, 7.44 9.9, 14.81 -0.87 M-1.04 19.31 C3.86 12.66, 8.52 7.57, 15.59 1.21 M-1.37 25.42 C8.94 17.81, 12.34 6.36, 21.73 1.64 M0.1 24.91 C5.29 18.22, 9.24 13.64, 21.99 0.31 M-1.72 29.6 C7.36 21.07, 15.73 10.21, 26.77 0.86 M-0.91 31.22 C9.79 19.05, 19.24 8.81, 26.64 -0.08 M1.62 35.47 C6.94 29.02, 12.63 18.42, 32.34 0.78 M0.07 37.06 C11.7 21.53, 24.03 8.99, 32.2 0.49 M-1.64 41.05 C7.41 31.19, 17.22 23.02, 36.77 0.11 M-0.04 42.13 C12.75 29.31, 24.6 15.56, 37.42 0.97 M-0.74 49.86 C18.03 31.97, 33.51 11.65, 43.22 1.52 M0.14 48.08 C9.78 37.11, 19.77 27.44, 43 0.55 M0.45 52.86 C17.91 32.91, 36.4 15.83, 48.11 -0.96 M-0.29 55.1 C13.09 40.3, 26.07 24.54, 48.02 -0.39 M-0.18 59.88 C19.54 38.29, 36.4 21.37, 54.13 -0.71 M-0.1 60.8 C16.36 42.02, 32.42 23.15, 53.84 -0.51 M1.32 65.59 C21.43 44.13, 39.16 22.61, 58.56 0.85 M-0.68 66.72 C20.67 44.6, 42.69 19.51, 58.51 -0.65 M-1.31 73.11 C22.64 49.7, 41.1 24.32, 62.32 -0.47 M-0.37 73.52 C23.51 47.17, 45.42 20.63, 64.69 0.03 M1.16 79.56 C26.17 48.79, 55.12 17.46, 70.35 -0.25 M0.26 79.02 C23.29 52.53, 46.53 25.57, 68.01 0.9 M-0.27 84.13 C25.02 56.87, 48.61 29.66, 72.53 -0.24 M0.62 85.79 C22.73 59.51, 45.54 31.86, 75.04 -0.34 M1.64 93.4 C22.48 66.82, 43.89 43.04, 78.87 0.52 M-0.45 91.04 C31.37 55.4, 60.43 19.59, 78.33 0.75 M0.62 97.35 C27.64 64.18, 59.38 30.98, 79.73 7.77 M-0.47 98.14 C31.72 61.36, 61.2 25.42, 77.68 7.88 M-1.4 102.99 C26.49 75.64, 52.33 43.96, 77.43 14.5 M-0.61 102.78 C26.62 72.75, 53.17 41.8, 77.72 14.13 M1.46 109.9 C15.74 89, 35.44 69.16, 77.49 18.62 M-0.01 110.06 C26.96 80.27, 51.92 50.72, 78.07 20.09 M-0.7 116.27 C28.3 82.76, 59.28 49.52, 78.84 26.45 M-0.53 115.01 C31.02 80.52, 59.98 47.33, 77.53 24.92 M-0.48 121.49 C26.32 93.39, 50.26 61.23, 76.24 34.09 M0.33 120.79 C23.74 95.72, 47.84 69.22, 77.51 32.2 M5.75 121.16 C26.2 97.14, 43.63 75.45, 78.58 39.46 M5.27 122.17 C20.94 104.7, 34.54 86.25, 78.26 37.54 M9.07 121.03 C25.6 103.36, 42.49 83.83, 78.57 43.82 M10.45 121.01 C32.7 97.87, 54.29 71.87, 77.56 44.62 M18.17 119.66 C38.61 95.62, 60.99 70.74, 76.52 51.41 M16.53 121.48 C33.34 103.34, 49.58 82.99, 78.41 50.37 M21.78 122.08 C35.69 106.52, 50.26 90.18, 76.54 55.44 M21.18 121.23 C41.72 97.95, 64.1 74.61, 78.28 55.48 M25 121.81 C34.88 111.3, 45.6 97.02, 79.06 61.47 M26.26 121.93 C41.47 105.95, 55.44 88.27, 77.52 63.3 M33.68 120.19 C44.14 109.16, 56.39 93.41, 77.03 69.4 M32.26 122.16 C41.78 111.48, 51.75 100.48, 78.6 68.41 M39.39 119.68 C46.6 112.66, 56.89 100.2, 79.72 73.08 M38.21 121.21 C50.69 105.51, 65.05 90.08, 77.81 73.71 M43.89 123.18 C54.87 106.1, 69.5 88.47, 78.35 81.88 M42.08 121.97 C53.19 108.58, 64.2 96.58, 77.93 80.52 M47.99 123.34 C57.14 112.77, 66.25 104.16, 76.48 84.71 M48.67 120.74 C54.43 113.58, 60.91 105.56, 78.5 86.19 M52.04 121.89 C63.62 112.45, 70.23 100.29, 76.32 91.39 M54.06 122.09 C60.62 114.25, 66.35 106.29, 77.22 93.91 M56.87 122.92 C66.2 113.86, 70.46 107.63, 77.14 100.64 M59.45 120.68 C64.81 115.15, 70.39 108.03, 78.19 100.33 M64.2 120.22 C67.97 116.25, 70.35 111.12, 76.88 105.69 M63.64 122.16 C66.69 118.08, 71.25 114.66, 78.6 105.65 M69.54 122.13 C71.45 118.51, 75.37 114.24, 79.25 110.45 M69.07 121.06 C72.57 117.83, 75.92 115.16, 78.28 110.98 M74.58 121.49 C75.84 121.13, 76.98 119.34, 78.08 116.98 M74.68 121.49 C75.93 120.21, 77.02 118.6, 78.17 117.27" stroke="#82c91e" stroke-width="0.5" fill="none"></path><path d="M0.2 0.6 C18.55 -1.13, 37.44 1.42, 75.17 -0.51 M-0.52 0.5 C26.81 0.21, 52.17 -0.16, 75.53 0.97 M78.34 0.11 C78.79 42.81, 77.95 82.39, 77.82 119.65 M76.38 0.44 C75.25 30.16, 76.25 58.87, 76 121.8 M77.94 121.41 C44.96 120.94, 15.43 121.37, 0.25 121.12 M75.89 121.54 C48.34 120.65, 22.1 121.69, -0.32 121.18 M0.55 122.67 C0.33 95.11, -0.85 68.11, 1.79 0.34 M0.4 120.64 C-0.3 86.48, -0.8 50.24, 0.15 0.55" stroke="#000000" stroke-width="1" fill="none"></path></g><g stroke-linecap="round"><g transform="translate(658.4556648464204 236.14451775684756) rotate(0 5.8613964410320705 -7.325090013377121)"><path d="M-0.28 0.4 C1.29 -1.67, 7.85 -10.88, 9.61 -13.04 M1.77 -0.44 C3.72 -2.83, 10.71 -12.7, 12.01 -15.05" stroke="#000000" stroke-width="1" fill="none"></path></g></g><g stroke-linecap="round"><g transform="translate(680.5763001799751 235.9743590235139) rotate(0 -5.7054978643459435 -7.155065434916651)"><path d="M0.01 -0.08 C-1.79 -2.56, -8.64 -12.23, -10.38 -14.23 M-1.44 -1.17 C-3.45 -3.59, -9.77 -11.09, -11.42 -13.19" stroke="#000000" stroke-width="1" fill="none"></path></g></g><g stroke-linecap="round"><g transform="translate(705.5392816722751 139.9471259321199) rotate(0 30.580464366094475 -0.7552709531319124)"><path d="M0.83 0.13 C11.1 0.23, 51.53 0.33, 61.35 0.25 M-0.19 -0.85 C10.02 -1.1, 50.44 -2.01, 60.85 -1.74" stroke="#000000" stroke-width="1" fill="none"></path></g></g><g stroke-linecap="round"><g transform="translate(763.8857232578421 137.78614661413667) rotate(0 0.08904100120071234 -51.6323731715338)"><path d="M-0.47 0.99 C-0.55 -16.22, -0.33 -85.07, -0.24 -102.31 M1.49 0.47 C1.21 -17.21, -0.96 -87.34, -1.31 -104.26" stroke="#000000" stroke-width="1" fill="none"></path></g></g><g stroke-linecap="round"><g transform="translate(548.8682811184378 142.10810525010493) rotate(0 39.841832857383224 -0.19032171852904867)"><path d="M-1.15 0.41 C12.27 0.2, 67.4 -0.75, 80.83 -0.8 M0.45 -0.41 C13.75 -0.53, 67.35 0.01, 80.34 0.32" stroke="#000000" stroke-width="1" fill="none"></path></g><g transform="translate(548.8682811184378 142.10810525010493) rotate(0 39.841832857383224 -0.19032171852904867)"><path d="M52.69 11.6 C59.94 6.33, 70.78 2.48, 80.86 0.29 M51 10.69 C59.34 8.3, 68.15 5.05, 81.15 0.2" stroke="#000000" stroke-width="1" fill="none"></path></g><g transform="translate(548.8682811184378 142.10810525010493) rotate(0 39.841832857383224 -0.19032171852904867)"><path d="M53.01 -8.92 C60.24 -7.45, 70.97 -4.57, 80.86 0.29 M51.33 -9.82 C59.67 -6.49, 68.39 -3.99, 81.15 0.2" stroke="#000000" stroke-width="1" fill="none"></path></g></g><g stroke-linecap="round"><g transform="translate(503.15958389252387 310.12307347349633) rotate(0 81.34333336452835 -0.11706313580270944)"><path d="M-0.88 -1.02 C26.3 -0.83, 136.04 0.21, 163.56 0.55 M0.86 1.05 C27.87 0.95, 135.64 -0.97, 162.83 -1.29" stroke="#000000" stroke-width="1" fill="none"></path></g></g><g stroke-linecap="round"><g transform="translate(669.8831229255397 309.46337033026794) rotate(0 0.25903379660098835 -35.999968228186844)"><path d="M0.53 -0.41 C0.8 -12.13, 1.06 -58.11, 1.16 -70.06 M-0.64 -1.67 C-0.39 -13.72, 0.56 -59.99, 0.82 -71.59" stroke="#000000" stroke-width="1" fill="none"></path></g><g transform="translate(669.8831229255397 309.46337033026794) rotate(0 0.25903379660098835 -35.999968228186844)"><path d="M9.79 -41.25 C9.77 -48.67, 3.85 -57.92, -0.72 -73.06 M11.24 -43.17 C7.71 -49.74, 6.2 -54.69, -0.07 -71.39" stroke="#000000" stroke-width="1" fill="none"></path></g><g transform="translate(669.8831229255397 309.46337033026794) rotate(0 0.25903379660098835 -35.999968228186844)"><path d="M-10.72 -41.69 C-5.38 -49.09, -5.93 -58.22, -0.72 -73.06 M-9.28 -43.61 C-8.53 -50, -5.78 -54.86, -0.07 -71.39" stroke="#000000" stroke-width="1" fill="none"></path></g></g><g transform="translate(498.30192909063226 320.3211012984375) rotate(0 13 13)"><text x="13" y="18" font-family="Virgil, Segoe UI Emoji" font-size="20px" fill="#000000" text-anchor="middle" style="white-space: pre;" direction="ltr">clk</text></g><g stroke-linecap="round"><g transform="translate(586.6854191831574 130.22271900119267) rotate(0 -5.455592029118407 10.532114452051246)"><path d="M-0.65 -0.3 C-2.64 3.34, -9.38 17.75, -11.42 21.6 M1.21 -1.5 C-0.94 2.27, -10.16 18.28, -12.12 22.56" stroke="#000000" stroke-width="1" fill="none"></path></g></g><g stroke-linecap="round"><g transform="translate(465.13033254655943 24.874977249475705) rotate(0 -5.9215418276614855 11.088313163836574)"><path d="M-0.7 -1.2 C-2.65 2.66, -10.08 19.27, -11.98 23.38 M1.13 0.78 C-0.96 4.29, -10.62 18.16, -12.97 21.61" stroke="#000000" stroke-width="1" fill="none"></path></g></g><g stroke-linecap="round"><g transform="translate(217.6982006373953 125.36051553572725) rotate(0 -5.70794831069702 11.352046374307065)"><path d="M-1.2 -0.09 C-3.1 3.77, -9.55 18.52, -11.2 22.47 M0.37 -1.18 C-1.64 2.92, -9.81 20.07, -11.79 23.89" stroke="#000000" stroke-width="1" fill="none"></path></g></g><g stroke-linecap="round"><g transform="translate(69.67111735549372 142.64835007960028) rotate(0 -6.631971893986247 11.727698285264523)"><path d="M-0.09 0.69 C-1.99 4.8, -10.29 19.95, -12.11 23.45 M-1.6 0 C-3.61 3.88, -11.56 17.97, -13.17 21.73" stroke="#000000" stroke-width="1" fill="none"></path></g></g><g stroke-linecap="round"><g transform="translate(210.1347730244513 228.00703313996746) rotate(0 -5.7504432624537 11.363924150692583)"><path d="M0.69 0.07 C-1.06 3.98, -9.26 18.37, -11.47 22.32 M-0.4 -0.94 C-2.19 3.24, -9.99 19.85, -12.19 23.67" stroke="#000000" stroke-width="1" fill="none"></path></g></g><g transform="translate(273.15833876607815 178.21808568481174) rotate(0 135.50000000000006 13)"><text x="135.5" y="18" font-family="Virgil, Segoe UI Emoji" font-size="20px" fill="#000000" text-anchor="middle" style="white-space: pre;" direction="ltr">ADDER</text></g><g stroke-linecap="round"><g transform="translate(684.3276815364165 10.512711700797809) rotate(0 -0.3433841390848329 162.59088401429017)"><path d="M-0.34 -0.51 C-0.22 53.86, -0.51 271.42, -0.31 325.69" stroke="#000000" stroke-width="1.5" fill="none" stroke-dasharray="1.5 7"></path></g></g></svg>