<svg version="1.1" xmlns="http://www.w3.org/2000/svg" viewBox="0 0 644.6683071602401 934.7777777777756" width="1289.3366143204803" height="1869.555555555551">
  <!-- svg-source:excalidraw -->
  
  <defs>
    <style>
      @font-face {
        font-family: "Virgil";
        src: url("https://excalidraw.com/Virgil.woff2");
      }
      @font-face {
        font-family: "Cascadia";
        src: url("https://excalidraw.com/Cascadia.woff2");
      }
    </style>
  </defs>
  <rect x="0" y="0" width="644.6683071602401" height="934.7777777777756" fill="#ffffff"></rect><g stroke-linecap="round" transform="translate(10 800.228805136836) rotate(0 20 43.125)"><path d="M0 0 C0 0, 0 0, 0 0 M0 0 C0 0, 0 0, 0 0 M0.04 6.75 C1.71 3.81, 2.95 1.28, 4.99 0.49 M-0.25 6.1 C0.94 5.31, 1.75 4.12, 4.93 0.03 M0.31 12.73 C1.74 10.45, 4.99 5.53, 12.07 1.17 M0.81 12.56 C2.15 8.15, 6.41 5.15, 10.32 0.14 M-1.53 19.96 C5.13 11.92, 9.34 10.33, 16.48 0.43 M-0.58 18.97 C5.43 12.23, 10.36 8.4, 16.16 0.64 M1.16 22.25 C6.76 16.35, 10.29 12.44, 21.18 -1.67 M0.7 23.99 C6.05 16.94, 12.97 10.9, 22.19 -0.18 M-0.18 31.29 C7.86 19.8, 17.66 9.56, 26.7 -0.41 M0.43 30.17 C7.8 21.89, 14.75 13.5, 25.91 1.09 M0.09 35.53 C11.97 22.09, 23 8.49, 33.17 0.69 M0.05 37.86 C8.89 26.07, 17.8 17.37, 32.37 -0.48 M-1.58 40.96 C12.57 29.74, 22.31 14.81, 35.97 0.66 M1.06 42.88 C13.81 25.24, 27.54 9.52, 36 0.23 M0.68 49.87 C9.32 41.01, 15.73 30.25, 40.24 2.97 M0.3 49.08 C15.65 29.51, 32.05 11.22, 40.83 1.09 M1.31 54 C13.89 38.68, 27.18 23.06, 40.86 5.26 M0.75 54.32 C14.1 39.56, 27.83 24.18, 41.1 6.31 M-1.38 60.98 C13.52 46.19, 27.86 28.77, 42.84 14.48 M-0.54 60.79 C12.21 47.33, 23.54 34.04, 41.27 12.43 M-2 67.55 C8.37 56.71, 21.97 45.68, 40.69 17.83 M0.44 67.03 C15.23 50.46, 28.52 32.45, 40.12 19.1 M-1.57 74.17 C9.3 61.7, 20.59 52.22, 39.62 26.25 M-0.16 72.45 C10.28 62.69, 19.93 50.11, 41.56 25.42 M1.16 77.82 C13.03 62.73, 27.36 49.97, 42.14 33.09 M0.23 78.89 C16.64 60.09, 32.62 42.31, 41.89 32.41 M-1.22 83.08 C12.16 73.53, 23.13 60.23, 43.2 39.24 M0.41 85.61 C9.08 74.49, 18.26 63.73, 42.61 37.07 M3.25 87.62 C12.29 76.03, 22.29 68.4, 41.52 43.66 M3.02 87.58 C14.06 74.8, 25.69 62.33, 40.36 44.66 M5.72 87.4 C15.56 78.95, 23.54 66.79, 42.72 48.49 M7.07 88.57 C15.73 79.95, 24.34 68.95, 41.8 50.73 M13.19 89.34 C21.78 78.61, 30.06 67.65, 41.94 57.76 M14.2 88.61 C18.87 81.34, 24.39 74.34, 40.79 55.62 M16.3 88 C24.56 79.77, 31.98 73.61, 40.42 62.12 M19.2 88.56 C27.99 77.9, 36.24 66.99, 40.69 62.06 M21.9 89.77 C27.44 85.27, 32.09 81.73, 42.66 69.94 M24.18 89.12 C27.36 84.68, 32.39 80.41, 42.13 68.13 M28.39 87.39 C33.29 84.07, 39.32 78.03, 41.72 75.78 M28.55 89.11 C32.44 83.32, 37.7 77.84, 41.98 74.57 M33.95 88.17 C35.74 85.41, 37.63 84.64, 40.77 80.31 M34.48 88.57 C36.47 86.6, 38.35 84.33, 41.21 80.31" stroke="#ced4da" stroke-width="0.5" fill="none"></path><path d="M-0.75 1.13 C10.18 0.96, 21.65 1.11, 40.67 -1.19 M-0.88 0.79 C12.63 -0.82, 24.35 -0.5, 40.96 0.46 M41.44 -0.58 C40.75 30.4, 38.81 61.48, 39.9 85.04 M39.89 -0.41 C39.56 22.88, 40.99 45.16, 39.46 86.03 M41.21 85.36 C31.65 85.97, 20.3 86.45, -1.55 87.51 M39.98 86.94 C31.51 85.75, 23.8 85.86, -0.93 87.09 M-0.46 84.76 C0.9 58.5, -1.1 29.65, 1.68 -0.17 M-0.22 87.01 C-0.88 55.45, 0.3 25.67, -0.65 -0.94" stroke="#000000" stroke-width="1" fill="none"></path></g><g stroke-linecap="round"><g transform="translate(28.76350460624144 806.7013564989265) rotate(0 1.5322311531249397 33.50606654374769)"><path d="M-0.45 0.68 C-0.36 12.04, 0.88 55.95, 1.16 67.03 M1.51 -0.01 C1.93 11.08, 3.73 54.25, 3.49 65.09" stroke="#000000" stroke-width="1" fill="none"></path></g></g><g stroke-linecap="round" transform="translate(12.912165131253005 843.1544748743308) rotate(0 16.48309177810893 15.878348687470861)"><path d="M1.28 0.29 L31.46 0.92 L33.12 33.29 L-0.98 30.68" stroke="none" stroke-width="0" fill="#ced4da"></path><path d="M-1.19 0.58 C5.6 0.54, 14.07 -1.38, 32.9 -0.7 M0.77 -0.45 C13.53 -0.4, 26.78 0.2, 33.44 0.46 M33.32 0.43 C31.61 9.17, 33.09 14.08, 32.27 32.72 M32.11 0 C33.51 5.85, 32.39 12.67, 32.19 31.04 M33.52 31.65 C22.66 31.99, 14.61 32.87, -2 31.13 M32.48 31.33 C23.49 31.66, 13.46 32.82, 0.35 31.59 M0.76 32.9 C-1.16 21.27, 1.76 8.21, 0.98 -0.25 M-0.99 31.08 C0.26 21.6, -0.59 11.18, -0.94 -0.48" stroke="#000000" stroke-width="1" fill="none"></path></g><g stroke-linecap="round" transform="translate(74.96314524002673 800.228805136836) rotate(0 20 43.125)"><path d="M0 0 C0 0, 0 0, 0 0 M0 0 C0 0, 0 0, 0 0 M-0.59 5.72 C0.88 4.36, 3.38 1.68, 5.24 0.28 M-0.03 6.13 C1.74 4.5, 2.63 2.38, 4.83 0.25 M1.09 12.37 C1.96 9.77, 7.81 3.89, 9.16 0.75 M-0.61 12.81 C3.45 7.2, 8.29 2.56, 10.11 0.36 M-1.82 19.53 C4.82 15.06, 7.07 10.03, 14.25 0.75 M-0.87 19.36 C4.64 14.26, 8.11 8.49, 16.11 1.18 M-1.51 24.18 C7.81 15.51, 13.35 6.99, 19.78 -0.08 M0.01 24.62 C8.1 16.81, 14.58 8.26, 20.9 0.88 M0.65 28.76 C9.01 22.4, 14.44 12.65, 24.45 1.96 M-0.09 30.55 C8.88 19.73, 18.86 10.68, 26.96 0.11 M-0.49 34.99 C10.98 26.45, 21.2 12.97, 30.41 -1.97 M-1.12 36.85 C10.68 25.15, 20.24 12.67, 31.08 -0.44 M0.79 40.77 C7.63 32.5, 16.61 26.01, 35.97 1.6 M-0.7 41.58 C14.03 25.28, 28.78 8.7, 36.27 -0.72 M1.6 47.03 C14.7 31.68, 29.37 18.25, 40.05 2.41 M-0.83 48.68 C13.45 32.48, 27.86 16.79, 41.98 0.4 M-0.59 55.03 C13.88 36.98, 27.73 21.49, 40 8.4 M1 54.9 C15.54 37.51, 28.43 21.82, 40.8 7.59 M1.31 60.9 C9.25 51.62, 20.13 38.87, 41.86 12.9 M-0.16 61.03 C10.34 49, 19.39 36.86, 40.58 14.01 M0.99 68.98 C10.33 57.25, 15.28 48.65, 41.64 21.74 M0.15 66.87 C14.47 48.46, 29.72 31.11, 40.49 19.04 M-0.78 74.58 C9.01 61.03, 18.39 51.49, 40.37 24.86 M1.11 72.71 C11.31 60.29, 22.64 47.57, 41.99 25.55 M-1.67 80.9 C16.07 62.97, 31.56 46.54, 40.58 31.08 M-1.07 79.79 C13.74 63.96, 28.33 47.05, 42.08 31.3 M1.24 86.21 C10.43 75.66, 21.12 62, 43.31 37.39 M0.75 84.25 C13.72 71.28, 25.52 54.8, 42.22 37.93 M1.25 89.5 C17.43 73.78, 28.18 58.85, 41.31 43.59 M2.25 88.35 C16.55 72.42, 29.99 57.91, 42.33 44.22 M7.85 87.78 C12.76 82.59, 19.8 72.09, 40.07 49.51 M8.33 88.5 C15.25 80.25, 24.5 70.05, 41.7 50.98 M13.17 88.88 C19.89 79.18, 31.64 67.37, 42.3 57.86 M13.39 87.66 C24.3 75.01, 35.07 63.07, 42.26 56.59 M17.71 88.28 C24.57 82.69, 27.42 80.01, 42.37 63.1 M17.87 88.85 C26.44 77.59, 36.16 66.7, 40.91 61.44 M24.74 89.37 C28.7 85.33, 32.81 78.57, 41.36 66.63 M24.57 89.07 C30.4 82.26, 35.52 75.71, 41.43 67.87 M29.46 90.02 C32.17 85.16, 37.22 82.02, 42.23 73.52 M28.61 88.6 C31.54 85.67, 35.62 80.97, 41.43 74.46 M33.68 87.86 C36.55 86.21, 37.25 84.32, 41.05 80.15 M34.75 88.7 C36.33 86.22, 37.83 83.73, 40.72 80.36" stroke="#ced4da" stroke-width="0.5" fill="none"></path><path d="M0.58 -1.1 C11.22 0.91, 19.8 0.17, 39.3 1.83 M-0.45 0.62 C8.36 0.65, 17.45 0.17, 40.46 -0.59 M40.43 -1.58 C41.28 31.96, 38.54 63.43, 40.96 84.31 M40 0.57 C39.05 24.4, 39.43 49.11, 39.29 85.8 M39.9 84.34 C25.96 84.81, 12.42 84.36, -0.63 85.89 M39.58 86.06 C27.75 85.13, 16.99 86.41, -0.16 86.93 M1.14 85.01 C1.84 64.02, 0.47 39.41, -0.25 0.18 M-0.68 86.44 C-0.99 61.58, -1.6 37.29, -0.48 0.64" stroke="#000000" stroke-width="1" fill="none"></path></g><g stroke-linecap="round"><g transform="translate(93.72664984626772 806.7013564989229) rotate(0 0.6895693098895208 33.212556989053155)"><path d="M0.35 -0.66 C0.62 10.64, 2.17 55.87, 2.31 67.08 M-0.93 1.61 C-0.84 12.6, 0.82 54.12, 1.59 65.17" stroke="#000000" stroke-width="1" fill="none"></path></g></g><g stroke-linecap="round" transform="translate(77.87531037127974 843.1544748743308) rotate(0 16.48309177810893 15.878348687470861)"><path d="M0.92 0.15 L34.5 -0.98 L31.89 30.29 L-1.15 30.86" stroke="none" stroke-width="0" fill="#ced4da"></path><path d="M0.72 0.67 C6.73 0.11, 15.14 2.01, 31.21 1.58 M-0.14 0.96 C12.88 0.27, 25.29 -0.8, 33.68 -0.29 M34.49 -0.1 C31.82 9.4, 33.99 18.24, 32.75 30.94 M32.37 -0.54 C32.75 6.04, 32.25 13.18, 33.57 31.31 M33.34 30.2 C23.43 29.44, 10.74 31.08, -0.04 33.14 M32.64 30.83 C25.51 32.04, 16.22 32.37, -0.23 31.01 M1.19 33.44 C-0.36 22.01, -0.43 10.48, -0.43 1.52 M-0.34 31.1 C-0.73 24.43, -0.27 19.61, 0.14 -0.75" stroke="#000000" stroke-width="1" fill="none"></path></g><g stroke-linecap="round" transform="translate(139.92629048005347 800.228805136836) rotate(0 20 43.125)"><path d="M0 0 C0 0, 0 0, 0 0 M0 0 C0 0, 0 0, 0 0 M-0.26 6.53 C0.5 5.12, 2.43 3.33, 4.38 0.51 M-0.32 6.06 C1.31 4.03, 3.43 2.07, 5.16 0.19 M1.57 13.24 C3.2 6.31, 8.45 4.79, 11.66 -1.61 M-0.17 12.21 C1.89 9.1, 4.76 6.55, 11.24 0.37 M0.74 18.54 C3.16 13.05, 6.99 9.6, 16.69 1.75 M0.42 18.75 C2.65 14.7, 7.67 10.57, 14.7 1.12 M0.18 22.48 C4.4 17.49, 9.11 14.73, 21.09 -0.84 M1.2 23.97 C6.58 16.96, 12.62 10.59, 21.67 -1.01 M0.46 29.78 C8.47 18.45, 19.38 11.06, 25.63 0.94 M-0.33 31.27 C8.56 22.47, 15.06 13.15, 25.57 0.19 M1.02 37.67 C8.91 24.6, 16.78 16.02, 33.85 -0.17 M0.22 36.5 C6.83 27.94, 13.16 19.99, 31.11 0.05 M-0.77 42.92 C14.4 27.68, 26.3 16.36, 37.6 -0.94 M-0.74 42.5 C7.58 32.92, 15.43 24.8, 37.35 0.47 M-1.09 50.51 C18.05 29.21, 33.27 12.87, 41.53 0.24 M-0.5 48.64 C9.7 39.01, 17.95 27.87, 40.93 1.66 M-0.47 52.81 C11.27 40.96, 22.78 31.31, 41.11 7.06 M-0.23 53.86 C15.85 35.71, 31.5 18.09, 41.62 6.7 M1.51 62.02 C14.81 44.18, 29.67 25.22, 41 14.48 M-0.06 59.98 C11.13 46.68, 23.98 33.11, 41.44 12.48 M-0.64 65.38 C15.43 50.33, 31.21 33.94, 40.43 21.66 M-1.21 66.65 C13.29 50.88, 27.33 34.44, 41.66 19.6 M-1.71 73.8 C9.05 59.77, 20.15 48.19, 40.38 25.4 M0.23 72.96 C16.84 54.76, 33.14 36.04, 40.68 25.59 M0.81 80.64 C10.52 68.02, 17.15 58.76, 40.2 32.87 M0.56 79.95 C7.83 70.61, 16.07 59.27, 40.23 32.47 M1.87 86.79 C13.04 70.11, 28.69 52.11, 42.74 36.73 M1.27 84.61 C14.43 68.85, 29.77 52.05, 41.21 37.75 M2.81 88.19 C11.3 77.76, 19.96 68.29, 39.67 43.62 M1.65 89.19 C12.36 77.61, 23.22 64.04, 40.66 43.73 M9.26 86.98 C17.26 76.12, 27.87 64.03, 40.66 49.31 M8.34 89.22 C20.06 75.34, 33.24 60.41, 41.56 50.52 M13.73 90.22 C19.76 79.84, 31.78 71.31, 41.92 55.41 M12.58 88.08 C22.43 79.04, 31.75 67.17, 41.11 55.59 M17.46 88.53 C26.44 82.5, 31.62 76.04, 40.85 64.07 M17.73 88.48 C23.24 81.74, 29.35 74.14, 41.93 62.3 M24.95 90.32 C28.23 81, 34.58 74.84, 43.15 67.11 M24.42 88.51 C30.89 80.54, 36.64 73, 40.92 67.88 M29.25 90.12 C34.06 84.87, 36.17 78.58, 42.15 72.62 M29.52 88.91 C32.01 84.98, 35.75 80.46, 41.21 73.84 M34.21 87.86 C35.6 86.63, 36.77 84.93, 41.59 81.21 M34.65 87.86 C36.54 85.35, 38.57 83.56, 41.02 81.26" stroke="#ced4da" stroke-width="0.5" fill="none"></path><path d="M0.67 -1.19 C13.09 -0.84, 28.14 -1.9, 41.58 1.53 M0.96 0.46 C10.66 0.51, 19.78 0.77, 39.71 0.18 M39.9 -1.21 C38.62 28.67, 37.38 55.2, 39.19 84.54 M39.46 -0.22 C39.72 25.18, 40.04 52.38, 39.55 86.52 M38.45 87.51 C26.21 85.7, 16.05 86.29, 1.39 85.28 M39.07 87.09 C30.05 85.96, 20.08 85.89, -0.75 86.63 M1.68 86.08 C1.52 55.19, 0.72 24.2, 1.52 -1.97 M-0.65 85.31 C-1.1 65.74, 0.47 46.34, -0.75 0.46" stroke="#000000" stroke-width="1" fill="none"></path></g><g stroke-linecap="round"><g transform="translate(158.6897950862949 806.7013564989302) rotate(0 0.49625751909366045 33.432863305052706)"><path d="M0.4 -0.72 C0.82 10.26, 1.41 55.21, 1.83 66.26 M-0.84 1.52 C-0.53 12.62, 0.26 56.77, 0.87 67.58" stroke="#000000" stroke-width="1" fill="none"></path></g></g><g stroke-linecap="round" transform="translate(142.83845561130602 843.1544748743308) rotate(0 16.48309177810893 15.878348687470861)"><path d="M-0.98 -1.07 L31.5 -1.15 L32.07 30.39 L-1.53 31.67" stroke="none" stroke-width="0" fill="#ced4da"></path><path d="M-0.07 -0.7 C12.92 -1.56, 23.75 1.73, 32.06 1.23 M0.48 0.46 C8.84 0.57, 18.58 0.03, 33.18 -0.79 M32.27 0.96 C31.01 11.73, 32.14 22.19, 32.97 32.9 M32.19 -0.71 C32.34 8.24, 32.35 15.54, 32.91 30.8 M30.97 31.13 C22.09 31.93, 13.33 30.99, -0.85 31.38 M33.32 31.59 C24.82 31.8, 14.56 32.41, 0.57 31.14 M0.98 31.51 C-0.08 19.9, 1.25 6.94, -1.36 0.38 M-0.94 31.27 C0.85 23.44, -0.55 15.31, 0.08 0.76" stroke="#000000" stroke-width="1" fill="none"></path></g><g stroke-linecap="round" transform="translate(204.88943572007975 800.228805136836) rotate(0 20 43.125)"><path d="M0 0 C0 0, 0 0, 0 0 M0 0 C0 0, 0 0, 0 0 M-0.01 6.32 C1.33 4.02, 3.03 3.28, 4.45 1.09 M-0.42 6.28 C1.33 4.89, 2.61 3.24, 5.07 0.01 M-1.34 12.83 C5.48 8.41, 6.65 1.18, 12.17 -1.31 M-0.39 12.43 C2.29 9.53, 6.01 5.08, 11.07 0.55 M-1.49 18.86 C4.36 13.29, 12.1 4.52, 17.46 2.04 M0.36 19.29 C5.84 11.19, 11.78 4.8, 15.67 0.37 M-1.22 24.07 C7.53 16.79, 12.11 9.31, 22.33 1.14 M-0.09 25.03 C8.45 14.86, 15.85 5.29, 20.4 0.68 M-1.79 32.15 C9.42 20.19, 17.69 10.88, 26.4 -0.1 M0.72 30.3 C6.94 21.51, 13.65 14.02, 25.3 0.68 M-1.74 35.01 C11.9 25.46, 22.92 8.32, 31.84 1.26 M-1.07 36.54 C10.2 23.18, 22.38 11.43, 31.01 -0.46 M-0.77 43.86 C11.25 32.18, 17.56 19.03, 35 -0.48 M-0.47 41.54 C8.34 34.36, 15.95 25.78, 35.94 0.75 M-1.28 49.96 C10.75 36.91, 19.16 23.21, 40.74 0.33 M0.65 47.94 C11.38 36.05, 22.02 23.41, 41.44 0.84 M-1.33 55.95 C12.51 41.46, 22.48 30.91, 42.27 8.58 M-0.53 55.13 C10.22 42.58, 20.9 31.36, 41.58 6.87 M0.53 60.44 C14.16 42.85, 31.82 25.03, 41.48 13.63 M-0.76 61.55 C11.69 47.37, 23.73 33.99, 42.15 14.34 M0.31 69.29 C13.19 53.14, 25.24 41.27, 40.11 18.41 M-0.84 66.59 C7.66 58.56, 16.73 47.82, 41.87 19.95 M-0.96 72.41 C7.91 62.3, 17.03 55.47, 40.9 25 M0.65 73.1 C13.56 57.46, 25.82 42.8, 42.22 25.84 M-0.75 78.62 C14.59 61.54, 29.24 44.18, 42 31.43 M0.75 78.85 C14.08 61.06, 30.66 45.02, 41.8 32.04 M1.98 84.94 C15.83 68.39, 30.49 50.14, 40.02 38.98 M0.89 85.48 C17.31 65.87, 33.78 46.56, 42.15 38.41 M2.61 88.12 C15.41 73, 26.32 60.15, 41.21 44.76 M3.63 88.75 C9.14 78.92, 17.73 70.75, 40.85 42.9 M6.62 88 C19.63 73.82, 32.54 60.97, 40.52 49.02 M8.24 89.47 C19.85 74.98, 32.55 60.15, 41.33 49.51 M14.09 90.32 C23.95 78.59, 30.68 67.9, 40.03 55.94 M14.05 89.05 C18.92 80.46, 26.08 73.06, 41.25 56.72 M19.4 89.51 C26.15 81.29, 31.96 74.03, 41.43 60.49 M17.95 87.85 C23 83.15, 29.64 76.34, 41.73 63.03 M23.65 87.01 C30.5 82.86, 35.31 75.47, 43.06 69.66 M23.71 88.25 C29.84 80.37, 36.24 74.2, 42.3 67.85 M29.76 87.86 C32.09 84.86, 34.98 78.93, 41.12 73.2 M28.97 88.8 C32.88 83.35, 37.46 77.42, 40.92 74.77 M34.49 87.7 C36.21 86.82, 38.52 84.74, 41.85 80.64 M34.15 87.9 C37.15 85.83, 39.34 83.19, 40.91 80.67" stroke="#ced4da" stroke-width="0.5" fill="none"></path><path d="M-0.7 1.83 C11.6 1.59, 28.23 -0.89, 41.23 -0.28 M0.46 -0.59 C16.55 -0.48, 31.85 0.02, 39.21 0.76 M40.96 -1.94 C39.26 24.62, 37.77 50.88, 41.15 85.06 M39.29 -0.45 C40.42 20.79, 40.09 42.42, 39.05 86.44 M39.37 85.89 C31.07 87.24, 21.25 85, -0.38 85.61 M39.84 86.93 C31.48 85.64, 23.79 86.96, -0.62 86.85 M-0.25 86.43 C-0.36 54.63, -1.9 18.63, 0.38 -0.67 M-0.48 86.89 C0.96 65.26, 1.28 45.85, 0.76 -0.49" stroke="#000000" stroke-width="1" fill="none"></path></g><g stroke-linecap="round"><g transform="translate(223.6529403263212 806.7013564989302) rotate(0 1.282859367518995 34.129689303505984)"><path d="M-0.42 1.1 C-0.16 12.38, 0.29 56.79, 0.82 67.63 M1.56 0.63 C2.24 11.59, 2.83 54.91, 2.98 66" stroke="#000000" stroke-width="1" fill="none"></path></g></g><g stroke-linecap="round" transform="translate(209.32342275192468 814.2398587630978) rotate(0 16.48309177810893 15.878348687470861)"><path d="M-1.15 -0.89 L31.6 -1.53 L32.88 33.72 L-0.71 30.63" stroke="none" stroke-width="0" fill="#ced4da"></path><path d="M-1.75 1.58 C11.31 -1.21, 20.79 -0.58, 34.88 0.92 M0.72 -0.29 C11.64 0.41, 22.13 0.96, 32.92 -0.61 M32.75 -0.81 C31.41 8.43, 34.27 15.65, 31.89 31.32 M33.57 -0.45 C33.01 7.01, 31.79 14.32, 32.19 32.39 M32.93 33.14 C25.4 30.85, 19.39 31.05, -1.85 33.43 M32.74 31.01 C22.3 32.55, 10.26 32.58, 0.84 31.67 M-0.43 33.27 C-1.93 19.31, 0.42 8.9, -1.31 -1.89 M0.14 31 C0.61 25.28, 0.92 18.17, -0.54 -0.73" stroke="#000000" stroke-width="1" fill="none"></path></g><g stroke-linecap="round" transform="translate(269.8525809601065 800.228805136836) rotate(0 20 43.125)"><path d="M0 0 C0 0, 0 0, 0 0 M0 0 C0 0, 0 0, 0 0 M-0.87 6.55 C1.95 3.86, 3.95 2.28, 4.32 -0.33 M-0.09 6.23 C1.36 4.9, 2.14 3.61, 5.29 0.19 M1.17 10.46 C0.77 10.98, 3.17 6.32, 10.97 -0.64 M0.74 12.45 C1.87 9.71, 5.59 6.79, 10.67 -0.04 M0.94 19.87 C2 16.16, 8.84 11.2, 16.24 -0.89 M-1.05 19.23 C4.32 12.1, 10.75 5.69, 14.82 0.18 M0.09 23.31 C4.5 19.61, 10.96 14.94, 21.03 1.27 M0.67 23.14 C5.91 16.86, 11.87 11.57, 20.91 -0.33 M-0.61 31.12 C5.09 24.17, 10.4 17, 27.84 2.2 M-0.67 30.37 C9.7 18.27, 19.95 8.64, 26.64 0.06 M1.71 36.81 C5.63 28.38, 15.98 21.02, 31.14 0.31 M-1.04 37.03 C7.24 28.18, 13.6 20.5, 32.09 0.73 M0.86 41.33 C7.53 29.54, 17.83 18.9, 36.83 -1.52 M0.61 42.74 C10.19 31.33, 18.61 21.69, 37.67 1.14 M0.2 47.78 C8.22 36.76, 18.61 24.96, 40.64 1.86 M-0.41 49.21 C15.49 31.01, 30.98 12.48, 40.33 1.62 M-0.22 54.61 C10.48 44.59, 19.68 32.45, 40.2 7.67 M0.28 54.24 C9.74 44.36, 18.03 34.68, 42.13 6.87 M-0.33 62.03 C13.26 45.83, 27.28 30.06, 39.37 12.31 M0.1 60.03 C9.58 51.51, 19.12 39.88, 40.35 13.97 M-0.91 69.2 C13.65 50.51, 25 33.96, 39.67 18.31 M0.33 67.15 C9.61 57.05, 20.17 43.87, 41.48 19.21 M-0.96 72.94 C12.34 60.9, 20.08 50.01, 41.4 25.8 M-0.65 73.14 C13.84 56.79, 29.51 39.81, 42.09 26.35 M-1.14 80.41 C9.26 67.27, 21.85 55.07, 42.33 31.2 M-1.1 80.02 C16.6 61.91, 32.28 43.75, 42.09 31.17 M1.4 84.27 C17.16 65.07, 33.63 50.34, 40.75 36.36 M-0.12 85.3 C14.3 68.29, 30.82 50.67, 41.49 37.48 M0.97 88.15 C13.48 74.85, 26.67 59.73, 42.88 43.06 M1.95 88.25 C18.04 70.53, 32.37 54.1, 40.45 43.4 M7.2 87.8 C17.54 78.8, 23.2 71.19, 41.96 50.14 M8.1 89.01 C19.41 75.12, 30.77 61.18, 42 49.41 M13.71 87.87 C22.81 75.6, 32.21 64.62, 40.86 56.2 M12.9 88.04 C23.44 76.17, 35.15 63.74, 41.37 56.86 M17.88 90.48 C25.59 79.29, 32.73 68.59, 40.68 60.34 M18.97 88.71 C25.1 82.37, 31.56 75.26, 42.2 61.52 M25.44 87.48 C30.46 83.89, 35.91 77.62, 41.92 69.27 M23.21 88.26 C29.21 83.35, 33.76 77.12, 42.35 68.58 M29.68 86.96 C32.71 83.56, 36.41 80.09, 41.75 73.83 M28.75 88.18 C31.91 83.93, 36.97 79.63, 40.91 74.01 M35.03 88.75 C36.96 86.85, 38.34 84.09, 40.17 80.39 M34.46 88.8 C35.81 86.39, 37.45 84.47, 41.49 81.1" stroke="#ced4da" stroke-width="0.5" fill="none"></path><path d="M1.58 1.53 C9.7 1.58, 20.94 2.27, 40.92 0.95 M-0.29 0.18 C14.05 -1.08, 28.43 -0.34, 39.39 -0.35 M39.19 -1.71 C39.17 31.16, 37.97 58.96, 39.56 84.7 M39.55 0.27 C39.56 18.78, 39.8 38.69, 40.63 85.25 M41.39 85.28 C28.41 85.86, 17.88 84.39, 1.67 86.95 M39.25 86.63 C29.22 85.54, 17.9 87, -0.09 86.74 M1.52 84.28 C-1.43 61.82, -0.75 35.31, -1.89 -1.88 M-0.75 86.71 C-0.47 65.3, -1.04 42.28, -0.73 -0.58" stroke="#000000" stroke-width="1" fill="none"></path></g><g stroke-linecap="round"><g transform="translate(288.6160855663479 806.7013564989302) rotate(0 0.5979020463314555 33.88862210034404)"><path d="M0.95 0.92 C0.99 12.33, 1.2 56.27, 1.33 67.42 M-0.02 0.36 C-0.28 11.52, -0.05 54.73, 0.1 65.69" stroke="#000000" stroke-width="1" fill="none"></path></g></g><g stroke-linecap="round" transform="translate(272.7647460913595 843.1544748743308) rotate(0 16.48309177810893 15.878348687470861)"><path d="M-1.53 -0.09 L34.93 -0.71 L31.84 32.81 L0.68 31.57" stroke="none" stroke-width="0" fill="#ced4da"></path><path d="M-0.91 1.23 C6.72 1.67, 14.92 0.7, 33.88 -1.18 M0.21 -0.79 C13.02 -0.11, 23.9 -0.41, 33.45 -0.97 M32.97 1.15 C31.64 8.11, 32.4 16.82, 31.54 30.85 M32.91 -0.95 C33.01 10.67, 33.45 21.9, 32.65 31.57 M32.12 31.38 C22.5 29.74, 14.98 32.3, -0.33 33.12 M33.54 31.14 C24.42 32.72, 14.6 32.37, -0.12 31.85 M-1.36 32.14 C-0.92 21.61, -2.13 12.2, -0.96 1.28 M0.08 32.52 C-0.25 21.23, -0.49 11.21, -0.45 -0.68" stroke="#000000" stroke-width="1" fill="none"></path></g><g stroke-linecap="round" transform="translate(334.8157262001332 800.228805136836) rotate(0 20 43.125)"><path d="M0 0 C0 0, 0 0, 0 0 M0 0 C0 0, 0 0, 0 0 M-0.8 7.12 C0.79 4.34, 1.39 3.34, 4.76 0.45 M-0.18 6.05 C1.93 4.59, 3.2 1.85, 5.18 0.7 M1.67 10.77 C3.47 8.08, 7.3 2.29, 11.42 -1.16 M0.57 12.63 C4.37 7.63, 7.97 2.5, 10.8 -0.4 M1.72 20.15 C6.4 12.78, 9.66 6.73, 17.33 1.21 M-0.08 18.48 C2.96 14.01, 6.14 10.29, 15.61 0.76 M1.34 25.29 C8.33 16.87, 13.93 9.35, 23.15 -0.25 M-0.59 24.83 C7.87 15.43, 14.54 6.66, 22.09 0.35 M0.15 30.09 C6.31 23.96, 15.95 15.68, 25.88 0.64 M-0.94 30.87 C6.78 23.88, 12.02 15.72, 25.32 0.59 M-0.31 38.24 C13.51 21.68, 25.78 6.08, 31.21 -1.82 M-1.13 36.52 C6.37 28.76, 14.79 19.9, 32.56 0.82 M-1.74 41.78 C10.98 28.58, 23.3 13.21, 34.93 1.06 M-0.8 43.02 C12.34 28.31, 26.48 12.24, 37.4 0.68 M-0.59 47.88 C12.46 33.62, 26.76 20.7, 39.26 2.41 M0.11 48.39 C10.6 35.3, 22.46 22.44, 41.9 1.85 M0.94 56.13 C10.63 39.77, 23.69 26.47, 42.75 5.63 M0.24 54.42 C13.62 40.5, 25.18 25.91, 41.34 6.47 M0.14 61.18 C11.3 45.61, 22.04 32.59, 42.53 11.66 M0.82 61.88 C13.05 45, 26.59 31.56, 42.31 14.1 M-1.22 65.96 C8.43 53.07, 19.9 40.59, 39.55 18.1 M0.54 67.5 C13.74 50.9, 28.88 32.91, 40.78 19.5 M-0.43 72.55 C10.46 60.87, 20.76 50.32, 41.67 26.73 M0.89 73.39 C9.68 63.43, 19.24 51.99, 41.09 25.8 M0.67 78.98 C11.3 69.06, 19.58 57.83, 40.11 30.36 M0.47 79.58 C8.73 70.47, 15.6 60.85, 41.16 31.99 M-1.32 86.52 C17.19 67.04, 28.79 52.17, 42.49 38.11 M0.82 85.95 C11 72.84, 21.65 60.57, 41.46 37.88 M2.51 89.29 C9.1 80.48, 18.61 71.28, 42 41.99 M2.14 87.43 C12.47 77.19, 20.11 67.3, 40.96 43.34 M7.06 87.51 C18.57 78.69, 26.31 68.32, 42.47 50.21 M7.88 88 C19.39 76.33, 29.92 62.45, 42.05 51.22 M11.82 88.4 C21.07 77.28, 31.79 69.01, 42.8 53.97 M13.04 89.17 C20.39 79.83, 29.12 71.99, 41.86 56.88 M18.46 86.9 C23.43 80.87, 28.96 73.35, 39.43 60.33 M18.77 89.44 C27.31 79.83, 34.49 68.93, 40.55 62.61 M25.35 90.04 C31.7 80.86, 38.64 72.49, 41.41 67.45 M24.59 88.23 C28.2 84.34, 32.7 79.36, 41.17 67.62 M28.65 87.54 C34.55 84.24, 37 79.1, 41.53 73.27 M28.46 89.11 C32.22 84.29, 35.73 80.59, 40.76 74.27 M35.29 88.19 C37.03 84.72, 38.71 82.25, 40.27 81.63 M34.35 88.22 C35.94 86.59, 38.55 83.88, 41.58 80.38" stroke="#ced4da" stroke-width="0.5" fill="none"></path><path d="M1.23 -0.28 C17.07 1.1, 31.26 1.1, 38.82 1.44 M-0.79 0.76 C10.8 -0.69, 21.35 0.4, 39.03 -0.11 M41.15 -1.19 C38.19 21.92, 37.71 43.3, 39.1 87.46 M39.05 0.19 C39.46 22.65, 39.24 43.72, 39.82 86.23 M39.62 85.61 C23.37 87.75, 11.15 85.75, 1.36 85.79 M39.38 86.85 C31.82 86.39, 22.46 86.36, 0.09 86.03 M0.38 85.58 C-0.46 51.95, -1.02 20.46, 1.28 0.29 M0.76 85.76 C-0.94 66.15, -0.97 47.07, -0.68 -0.77" stroke="#000000" stroke-width="1" fill="none"></path></g><g stroke-linecap="round"><g transform="translate(353.57923080637465 806.7013564989302) rotate(0 1.348215097426646 32.96735053868997)"><path d="M0.74 -0.17 C1.09 11.13, 2.74 56, 3.03 67.23 M-0.33 -1.3 C-0.12 9.69, 2.3 54.32, 2.68 65.4" stroke="#000000" stroke-width="1" fill="none"></path></g></g><g stroke-linecap="round" transform="translate(339.2497132319768 811.1962149619158) rotate(0 16.48309177810893 15.878348687470861)"><path d="M-0.71 -1.13 L34.02 0.68 L32.78 33.23 L1.24 31.92" stroke="none" stroke-width="0" fill="#ced4da"></path><path d="M1.92 0.92 C9.35 0.96, 15.61 1.48, 32.39 0.36 M-0.05 -0.61 C10.24 0.23, 20.21 -0.36, 32.56 -0.85 M31.89 -0.44 C31.6 8.11, 32.24 20.28, 32.07 32.31 M32.19 0.63 C31.66 9.05, 32.48 18.71, 33.66 31.27 M31.11 33.43 C25.18 31.32, 17.35 31.2, -1.49 32.51 M33.81 31.67 C21.68 31.83, 9.5 31.74, 0.76 30.77 M-1.31 29.87 C-1.94 23.42, 1.22 17.3, -1.51 0.92 M-0.54 31.02 C-0.82 21.54, -0.93 11.45, -0.04 0.98" stroke="#000000" stroke-width="1" fill="none"></path></g><g stroke-linecap="round" transform="translate(399.77887144015995 800.228805136836) rotate(0 20 43.125)"><path d="M0 0 C0 0, 0 0, 0 0 M0 0 C0 0, 0 0, 0 0 M-0.93 5.71 C0.59 4.77, 2.22 3.94, 4.64 0.84 M0.04 6.23 C1.1 4.61, 3.49 2.74, 4.59 -0.01 M0.47 11.44 C3.35 8.08, 7.42 3.73, 11.44 -1.39 M0.18 12.04 C3.22 7.89, 7.12 3.86, 11.2 -0.63 M0.5 17.22 C6.87 12.96, 12.96 2.31, 17.21 -1.45 M-0.93 18.29 C3.92 12.92, 9.9 7.31, 15.23 0.07 M0.04 25.42 C6.83 17.24, 14.79 7.62, 19.38 0.58 M-0.08 23.82 C3.69 19.69, 9.5 13.38, 21.58 -0.16 M1.59 32.38 C9.56 20.92, 16.55 10.66, 26.04 0.06 M0.4 30.25 C4.54 23.18, 10.98 18.88, 26.22 -0.57 M-1 37.3 C7.44 25.05, 16.91 13.16, 32.19 0.55 M-0.06 37.71 C6.25 29.84, 14.45 21.68, 31.29 -0.94 M0.09 40.74 C6.65 32.17, 16.25 26.36, 37.31 1.98 M0.94 43.41 C6.91 34.52, 15.48 25.46, 36.31 -0.45 M-0.69 49.4 C13.1 33.97, 24.02 22.21, 41.79 0.51 M-1 49.17 C12.7 34.38, 27.36 18.05, 41.23 2.1 M-1.13 55.22 C12.08 40.06, 26.08 23.08, 40.97 8.31 M0.8 54.41 C12.88 39.86, 24.37 25.81, 42.14 6.85 M-1.96 59.86 C11.1 47.59, 23.56 32.01, 39.48 14.65 M-0.98 61.51 C15.59 43.89, 31.75 24.49, 42.26 13.81 M-1.67 65.85 C9.29 54.27, 19.16 45.01, 40.66 18.89 M0.15 66.75 C14.8 49.42, 30.72 31.14, 41.05 20.77 M0.07 73.34 C12.48 60.26, 23.94 45.59, 41.76 23.91 M0.76 73.89 C15.14 54.59, 31.3 36.64, 41.98 24.5 M0.99 78.74 C15.73 61.88, 26.53 44.9, 42.46 32.82 M0.76 78.72 C15.46 61.97, 29.56 45.54, 40.83 32.32 M-0.58 83.91 C10.26 75.03, 18.76 62.87, 42.12 36.11 M0.16 85.03 C14.47 68.01, 29.51 50.48, 41.47 37.11 M4.18 87.59 C15.77 76.4, 23.25 61.3, 41.01 44.12 M1.74 87.93 C12.26 76.57, 21.89 65.61, 40.86 44.6 M8.5 88.63 C18.2 79.46, 25.98 68.56, 41.54 50.19 M8.54 87.9 C19.21 77.16, 30.6 63.91, 40.83 50.41 M12.65 88.65 C21.24 82.52, 24.14 73.07, 40.8 55.39 M13.16 89.31 C21.4 79.9, 29.58 70.35, 42.35 55.55 M17.72 86.76 C25.02 78.88, 30.76 73.89, 41.15 63.18 M19.24 87.93 C26.01 78.68, 34.48 70.84, 40.78 63 M24.21 89.65 C29.95 80.47, 36.4 71.7, 41.43 68.58 M24.64 88.96 C30.92 80.35, 36.64 73.7, 40.69 67.68 M29.28 88.17 C32.73 84.68, 35.05 80.1, 40.28 72.76 M28.45 88.35 C31.97 84.51, 35.08 81.92, 41.77 74.79 M33.61 87.94 C36.26 84.64, 40.33 82.49, 42.07 80.25 M34.93 88.65 C36.13 86.86, 37.63 84.1, 41.44 80.31" stroke="#ced4da" stroke-width="0.5" fill="none"></path><path d="M0.92 0.95 C15.39 -1.57, 30.37 -0.96, 40.36 0.43 M-0.61 -0.35 C9.32 -0.95, 17.57 -0.39, 39.15 0 M39.56 -1.55 C38.06 29.92, 40.7 60.75, 40.55 86.15 M40.63 -1 C39.85 17.47, 40.14 36, 39.51 85.83 M41.67 86.95 C28.43 87.24, 17.06 84.39, 0.76 87.39 M39.91 86.74 C30.35 86.68, 20.73 87.34, -0.99 85.57 M-1.89 84.37 C-0.67 60, 0.58 29.69, 0.92 0.15 M-0.73 85.67 C-0.03 53.1, -0.34 21.27, 0.98 -0.35" stroke="#000000" stroke-width="1" fill="none"></path></g><g stroke-linecap="round"><g transform="translate(418.5423760464014 806.7013564989229) rotate(0 0.9039860668456186 33.48018599417901)"><path d="M0.55 0.57 C0.98 11.37, 2.06 55.01, 2.43 65.97 M-0.62 -0.17 C-0.28 11.28, 1.26 55.86, 1.77 67.14" stroke="#000000" stroke-width="1" fill="none"></path></g></g><g stroke-linecap="round" transform="translate(402.69103657141295 843.1544748743308) rotate(0 16.48309177810893 15.878348687470861)"><path d="M0.68 -0.19 L34.44 1.24 L33.13 32.5 L0.87 31.88" stroke="none" stroke-width="0" fill="#ced4da"></path><path d="M0.92 -1.18 C14.49 -0.73, 26.46 0.27, 31.38 1.52 M0.48 -0.97 C9.62 -0.29, 18.59 0.12, 33.54 -0.6 M31.54 -0.9 C34.11 6.92, 33.45 15.53, 31.06 32.14 M32.65 -0.18 C33.15 7.75, 32.68 13.69, 32.78 31.44 M32.64 33.12 C25.67 30.38, 20.05 33.02, -1.24 32.95 M32.84 31.85 C20.09 32.68, 6.65 31.24, 0.19 31.42 M-0.96 33.03 C0.59 22.8, 1.22 17.01, 1.53 -0.98 M-0.45 31.07 C-0.53 23.89, 1.22 15.76, -0.57 0.52" stroke="#000000" stroke-width="1" fill="none"></path></g><g stroke-linecap="round" transform="translate(464.7420166801867 800.228805136836) rotate(0 20 43.125)"><path d="M0 0 C0 0, 0 0, 0 0 M0 0 C0 0, 0 0, 0 0 M-0.49 6.48 C1.27 4.77, 2.54 3.97, 4.3 1.08 M-0.07 6.73 C1.99 3.79, 3.33 2.3, 4.67 0.21 M0.92 10.92 C4.77 9.04, 5.57 5.22, 11.8 0.66 M0.3 11.68 C3.77 9, 5.95 5.48, 11.31 0.4 M1.58 19.33 C3.36 13.95, 8.64 6.46, 15.71 0.24 M-0.13 18.87 C3.27 14.18, 6.57 11.12, 16.22 1.25 M2.16 23.9 C6.98 15.31, 12.87 8.5, 22.75 0.38 M1.1 24.5 C5.58 18.2, 11.36 11.55, 21.06 -0.4 M-0.36 30.83 C8.33 18.63, 19.4 5.49, 27.03 1.57 M-0.93 30.78 C9.97 20.39, 17.04 10.14, 26.93 0.77 M-0.93 35.16 C6.55 27.73, 17.21 15.96, 31.18 -1.02 M0.41 37.8 C10.08 24.59, 19.17 12.42, 31.52 -0.98 M-1.81 43.33 C12.4 30.61, 24.09 15.72, 37.87 -0.71 M0.66 42.95 C13.88 26.12, 26.96 10.4, 36.36 -0.12 M-2.08 49.95 C10.43 36.27, 21.36 23.23, 40.15 0.63 M0.57 49.4 C8.29 39.18, 18.04 29.39, 41.99 0.87 M1.42 53.17 C9.64 43.32, 20.42 32.97, 41.32 8.51 M0.01 54.01 C14.77 38.2, 29.37 20.93, 41.71 6.94 M1.2 59.21 C8.8 49.82, 18.18 43.72, 43.19 13.02 M0.97 61.65 C7.73 52.21, 16.76 41.24, 40.64 12.45 M-1.78 65.65 C10.75 56.28, 18.14 47.38, 41.36 17.95 M-0.55 67.05 C13.54 51.39, 29.11 34.96, 40.85 19.9 M0.34 74.27 C10.73 58.98, 23.01 46.11, 42.25 26.38 M-0.24 73.35 C14.17 56.43, 28.69 39.1, 41.26 26.13 M-1.22 77.9 C12.77 63.38, 30.4 46.39, 41.59 33.45 M-0.17 79.54 C16.79 60.24, 32.71 41.4, 41.95 32.85 M1.16 85.65 C10.38 73.07, 20.43 61.41, 43.43 37.67 M0.13 85.43 C11.38 71.19, 23.75 57.53, 42.04 36.51 M3.3 86.52 C16.03 70.92, 32.23 53.47, 39.36 45.53 M2.25 87.86 C10.78 78.77, 19.83 69.63, 40.71 44.61 M9.02 88.7 C20.11 75.8, 30.57 62.6, 39.52 50.75 M8.59 89.71 C21.28 73.31, 34.28 57.78, 41.09 49.6 M14.59 86.42 C20.07 78.75, 27.86 70.24, 43.05 55.13 M13.65 89.33 C20.94 79.7, 28.91 69.55, 40.56 55.4 M16.47 86.75 C26.21 81.53, 31.92 75.4, 42.61 63.38 M17.58 89.03 C28.39 77.82, 37.43 68.45, 42.06 62.85 M23.7 87.83 C27.97 81.77, 35.55 76.9, 41.37 68.36 M23.45 88 C30.82 79.72, 36.74 72.9, 41 68.64 M29.07 87.61 C32.65 83.03, 35.31 78.64, 42.15 73.76 M28.3 88.61 C32.58 85.49, 35.69 82.15, 41.23 74.6 M33.7 89.17 C35.79 87.77, 36.77 84.88, 40.9 79.99 M35.02 87.93 C36.7 85.81, 39.01 82.71, 41.53 80.71" stroke="#ced4da" stroke-width="0.5" fill="none"></path><path d="M-1.18 1.44 C13.26 0.17, 28.1 -1.77, 41.52 -0.1 M-0.97 -0.11 C9.16 -1.05, 19.15 0.38, 39.4 -0.54 M39.1 1.21 C38.44 24.53, 39.23 46.05, 40.38 84.7 M39.82 -0.02 C39.83 30.83, 38.71 62.43, 39.68 85.32 M41.36 85.79 C23.16 86.94, 10.45 84.95, 1.19 87.93 M40.09 86.03 C29.11 85.21, 16.02 86.39, -0.34 85.6 M1.28 86.54 C-0.7 69.44, 0.96 52.31, -0.98 -1.07 M-0.68 85.48 C0.45 67.69, 0.14 46.6, 0.52 0.34" stroke="#000000" stroke-width="1" fill="none"></path></g><g stroke-linecap="round"><g transform="translate(483.5055212864281 806.7013564989229) rotate(0 0.4100862064449302 33.58087276535025)"><path d="M-0.71 0.86 C-0.55 11.92, 1.06 56.08, 1.53 66.89 M1.12 0.27 C1.04 10.89, 0.34 53.84, 0.4 64.88" stroke="#000000" stroke-width="1" fill="none"></path></g></g><g stroke-linecap="round" transform="translate(467.6541818114397 843.1544748743308) rotate(0 16.48309177810893 15.878348687470861)"><path d="M1.24 0.17 L33.71 0.87 L33.09 30.94 L-1.69 30.25" stroke="none" stroke-width="0" fill="#ced4da"></path><path d="M-0.58 0.36 C11.83 -1.82, 24.33 -0.34, 31.75 -0.7 M-0.41 -0.85 C11.47 0.61, 22.35 -0.5, 32.75 -0.78 M32.07 0.55 C32.72 5.36, 33.2 12.98, 34.23 29.76 M33.66 -0.49 C32.48 8.34, 32.59 16.13, 33.8 32.11 M31.47 32.51 C24.76 30.45, 15.46 33.36, -0.17 32.74 M33.72 30.77 C22.8 31.88, 13.66 31.03, -0.94 30.82 M-1.51 32.68 C-0.05 25.29, -1.18 14.69, -1.47 -1.15 M-0.04 32.74 C-0.14 23.08, 0.74 15.89, -0.1 0.74" stroke="#000000" stroke-width="1" fill="none"></path></g><g stroke-linecap="round" transform="translate(529.7051619202134 800.228805136836) rotate(0 20 43.125)"><path d="M0 0 C0 0, 0 0, 0 0 M0 0 C0 0, 0 0, 0 0 M-0.6 6.88 C1.32 4.05, 3.3 3.7, 4.64 -0.38 M-0.66 6.03 C1.9 3.94, 3.2 2.23, 4.84 0.1 M0.94 10.69 C4.75 8.92, 8.24 3.61, 10.63 -1.13 M0.7 11.45 C4.3 8.79, 7.37 4.48, 10.14 0.36 M1.46 16.66 C5.96 11.69, 11.85 3.01, 15.33 -1.16 M-0.52 18.19 C5.05 13.63, 10.16 7.48, 16.29 -0.03 M-1.61 24.73 C6.86 15.96, 17.31 4.23, 20.75 -1.86 M0.59 23.99 C8.29 14.69, 15.93 6.42, 22.21 0.65 M-0.2 30.25 C5.46 22.93, 16.02 14.44, 25.79 -1.19 M-0.03 29.62 C5.32 24.66, 11.24 17.36, 26.46 -0.52 M0.05 37.53 C6.86 26.58, 16.26 17.84, 33.55 -1.01 M-0.85 36.04 C10.26 22.82, 22.12 9.6, 31 -0.71 M0.57 44.24 C5.52 34.78, 13.87 26.83, 38.65 -0.9 M-0.43 41.81 C12.65 27.06, 25.45 12.42, 37.12 1.03 M0.46 48.06 C8.47 38.35, 15.62 28.03, 41.7 -0.23 M-0.1 49.65 C15.26 32.24, 29.69 13.18, 41.54 0.57 M-0.36 55.86 C15.32 37.28, 31.64 21.64, 41.31 7.53 M0.81 54.39 C11.93 41.7, 23.12 27.57, 41.05 6.25 M-1.86 62.2 C16.89 45.69, 29.73 24.77, 42.45 13.97 M0.93 61.36 C15.58 41.54, 31.49 22.68, 40.59 12.82 M-0.67 66.43 C10.97 56.77, 16.77 46.67, 39.87 18.71 M-0.28 68.32 C10.78 54.51, 22.33 41.84, 41.25 20.32 M0.42 71.45 C14.14 59.37, 26.37 45.11, 43.26 24.82 M0.65 72.05 C11.17 60.58, 22.26 48.92, 41.15 26.32 M1.13 80.36 C11.53 68.53, 22.07 58.27, 39.86 33.56 M-0.5 79.87 C11.21 65.88, 25.2 50.68, 40.65 32.46 M0.79 83.66 C15.43 70.67, 28.74 52.26, 41.58 37.46 M0.14 84.65 C11.81 72.27, 22.67 59.05, 41.19 38.48 M2.31 88.65 C14.95 71.88, 30.47 57.24, 40.37 42.88 M2.15 89.13 C12.71 76.25, 23.8 65.7, 41.27 44.51 M8.09 88.68 C20.5 72.83, 32.83 62.01, 39.33 51.11 M7.37 88.9 C19.81 73.45, 33.12 57.87, 41.22 51.07 M12.59 87.84 C23.45 78.19, 33.44 64.52, 43.33 57.08 M14.14 88 C22.61 76.54, 31.52 66.21, 40.48 55.63 M18.19 89.59 C24.38 84.41, 29.25 79.41, 39.59 62.08 M17.82 89.41 C24.25 83.26, 29.39 76.43, 41.87 62.14 M23.72 88.96 C30.47 82.32, 34.61 78.14, 42.83 68.9 M22.98 88.06 C28.37 82.46, 33.68 78.08, 41.33 68.06 M27.82 87.1 C31.97 85.09, 36.08 78.97, 40.64 74.3 M29.3 89.13 C32.59 85.11, 35.06 80.95, 40.99 73.66 M35.5 87.79 C35.54 86.49, 36.54 85.84, 41.76 80.47 M34.88 87.86 C37.32 85.78, 39.75 81.94, 40.97 80.83" stroke="#ced4da" stroke-width="0.5" fill="none"></path><path d="M0.36 0.43 C8.05 1.64, 19.17 -1.1, 39.3 0.96 M-0.85 0 C8.69 -0.43, 15.69 -0.06, 39.22 -0.71 M40.55 -0.1 C38.62 22.35, 38.97 45.21, 38 85.62 M39.51 -0.42 C39.79 23.98, 39.06 49.45, 40.35 86.09 M40.76 87.39 C24.04 87.15, 12.24 85.78, 0.98 86 M39.01 85.57 C27.83 86.22, 14.62 85.61, -0.94 85.77 M0.92 86.4 C1.4 53.88, -1.2 22.01, -1.15 -0.89 M0.98 85.9 C0.09 66.8, 1 46.2, 0.74 0.62" stroke="#000000" stroke-width="1" fill="none"></path></g><g stroke-linecap="round"><g transform="translate(548.4686665264549 806.7013564989302) rotate(0 1.0034965373438354 33.46911522178925)"><path d="M0.21 0.26 C0.22 11.58, 0.66 56.64, 0.93 67.59 M-1.13 -0.66 C-0.83 10.37, 2.78 54.69, 3.14 65.95" stroke="#000000" stroke-width="1" fill="none"></path></g></g><g stroke-linecap="round" transform="translate(534.1391489520579 806.6307492601409) rotate(0 16.48309177810893 15.878348687470861)"><path d="M0.87 0.13 L32.15 -1.69 L31.46 31.76 L0.33 30.14" stroke="none" stroke-width="0" fill="#ced4da"></path><path d="M-1.58 1.52 C8.84 -1.28, 17.19 0.89, 31.02 -0.22 M0.57 -0.6 C8.01 -0.22, 16.32 -0.71, 32.51 0.61 M31.06 0.38 C31.5 9.37, 31.06 15.59, 32.6 31.72 M32.78 -0.32 C31.89 12.57, 33.16 23.3, 33.65 31.53 M31.73 32.95 C27.22 31.77, 19.09 31.7, 0.18 31.32 M33.16 31.42 C19.92 30.59, 7.25 31.05, 0.64 31.9 M1.53 30.78 C-1.22 23.16, -1.3 16.6, -1.37 -1.53 M-0.57 32.28 C0.03 22.27, 0.42 13.6, 0.08 0.37" stroke="#000000" stroke-width="1" fill="none"></path></g><g stroke-linecap="round" transform="translate(594.6683071602401 800.228805136836) rotate(0 20 43.125)"><path d="M0 0 C0 0, 0 0, 0 0 M0 0 C0 0, 0 0, 0 0 M-0.95 7.12 C1.65 4.49, 1.67 3.67, 5.66 0.88 M-0.58 6.24 C0.94 4.98, 1.65 4.11, 4.71 0.66 M1.31 12.73 C4 7.75, 6.51 3.85, 9.9 0.82 M0.82 12.48 C4.37 6.97, 8.41 3.66, 10.99 -0.77 M-0.04 18.36 C4.41 11.27, 10.5 4.68, 16.48 0.15 M0.48 19.37 C3.92 14.29, 7.79 9.83, 15.53 0.73 M1.76 24.53 C3.81 18.77, 7.04 15.98, 22.11 -0.68 M0.07 23.75 C8.06 16.99, 14.96 7.84, 21.44 -0.74 M0.79 31.76 C8.43 21.53, 13.75 11.38, 26.85 2.26 M0.69 30.95 C7.68 21.74, 15.03 12.23, 25.39 -0.49 M-0.97 35.97 C10.16 27.16, 18.98 15.18, 33.73 0.62 M-0.63 36 C7.76 27.4, 14.9 18.42, 32.29 0.37 M1.13 41.55 C13.19 31.04, 22.26 16.72, 37.73 0.58 M-0.38 42.15 C9.09 32.57, 19.08 21.07, 37.39 -0.03 M-1.18 48.18 C11.94 33.66, 25.7 18.9, 42.16 0.88 M0.66 48.41 C11.33 34.73, 23.73 20.59, 40.51 1.38 M-0.02 56.06 C12.11 41.53, 22.65 28.55, 40.51 6.67 M0.38 54.49 C13.98 37.18, 28.8 21.52, 40.73 7.11 M1.86 60.57 C6.28 51.9, 17.37 42.89, 42.73 12.76 M-0.69 60 C15.32 41.76, 31.65 23.09, 40.49 14 M0.03 65.5 C12.31 52.55, 21.95 39.89, 40.47 18.71 M-0.48 67.44 C11.54 53.52, 24.37 39.31, 41.72 19.02 M0.92 73.93 C14.73 59.55, 25.84 42.05, 42.16 24.44 M-0.07 73.68 C15.65 55.83, 30.46 38.93, 40.73 24.47 M0.25 80.99 C16.38 60.57, 31.31 44.6, 41.49 32.98 M0.62 80.4 C10.05 66.72, 21.9 55.29, 41.52 31.45 M2.1 85.22 C13.83 69.31, 27.48 53.57, 42.38 35.82 M0.71 84.06 C13.06 71.04, 25.11 58.17, 40.66 36.8 M0.65 90.06 C11.76 75.01, 23.52 62.59, 40.23 43.47 M2.01 89.14 C12.48 77.27, 22.38 66.87, 41.3 44.37 M6.06 89.24 C20.28 74.51, 30.08 65.76, 42.95 50.73 M7.63 88.09 C16.44 78.61, 26.7 68.59, 40.1 49.92 M14.84 87.59 C20.64 81.68, 29.5 71.96, 43.37 55.56 M12.35 87.86 C24.04 74.81, 34.91 62.35, 40.48 56.64 M19.65 89.79 C26.92 79.17, 31.51 71.62, 41.78 63.87 M19.1 89.26 C24.13 82.45, 29.68 74.92, 40.96 61.64 M23.66 88.73 C30.47 83.52, 35.07 75.48, 40.91 68.81 M23.28 89.02 C27.85 83.85, 31.4 80, 41.03 67.83 M29.69 88.1 C31.17 84.56, 35.01 80.6, 41.15 75.33 M28.77 88.94 C32.23 83.32, 36.68 77.97, 42.16 74.24 M34.34 87.54 C37.98 86.01, 39.49 83.32, 40.31 80.22 M34.97 88.25 C36.62 85.39, 39.5 82.35, 41.48 80.34" stroke="#ced4da" stroke-width="0.5" fill="none"></path><path d="M1.52 -0.1 C11.5 -0.38, 26.39 -1.63, 39.78 -0.81 M-0.6 -0.54 C8.37 -1, 16.46 -0.68, 40.61 -0.45 M40.38 -1.55 C41.22 26.25, 39.33 56.13, 39.96 87.64 M39.68 -0.93 C40.47 22.04, 39.47 44.06, 39.77 85.5 M41.19 87.93 C26.31 86.99, 12.73 86.19, -0.43 87.77 M39.66 85.6 C31 85.39, 23.41 86.97, 0.14 85.5 M-0.98 85.18 C-1.53 55.24, -0.96 25.17, -1.53 -0.09 M0.52 86.59 C0.21 52.63, 0.93 17.61, 0.37 0.44" stroke="#000000" stroke-width="1" fill="none"></path></g><g stroke-linecap="round"><g transform="translate(613.4318117664816 806.7013564989302) rotate(0 1.7055436062116769 33.22179809915815)"><path d="M0.91 -0.06 C1.06 11.14, 0.89 55.33, 1.15 66.26 M-0.07 -1.14 C0.45 10.31, 3.13 56.36, 3.48 67.58" stroke="#000000" stroke-width="1" fill="none"></path></g></g><g stroke-linecap="round" transform="translate(597.5804722914927 843.1544748743308) rotate(0 16.48309177810893 15.878348687470861)"><path d="M-1.69 -1.5 L32.97 0.33 L31.35 32.38 L-0.19 31.82" stroke="none" stroke-width="0" fill="#ced4da"></path><path d="M-1.21 -0.7 C8.24 -1.93, 14.35 -0.8, 31.26 0 M-0.22 -0.78 C11.07 -0.27, 24.17 -0.27, 33.24 -0.05 M34.23 -2 C32.4 6.14, 32.99 14.39, 32 30.91 M33.8 0.35 C32.7 9.6, 32.64 17.1, 33.34 32.33 M32.79 32.74 C24.87 32.22, 16.83 33.55, -1.97 30.4 M32.02 30.82 C21.96 32.18, 12.07 30.79, 0.46 31.83 M-1.47 30.6 C-0.74 18.43, -1.37 7.76, 1.97 -0.71 M-0.1 32.49 C0.45 24.11, 0.21 16.73, 0.06 -0.41" stroke="#000000" stroke-width="1" fill="none"></path></g><g transform="translate(606.2680049819351 898.7777777777756) rotate(0 7.5 13)"><text x="15" y="18" font-family="Virgil, Segoe UI Emoji" font-size="20px" fill="#000000" text-anchor="end" style="white-space: pre;" direction="ltr">0</text></g><g transform="translate(546.9346716486016 898.7777777777756) rotate(0 3 13)"><text x="6" y="18" font-family="Virgil, Segoe UI Emoji" font-size="20px" fill="#000000" text-anchor="end" style="white-space: pre;" direction="ltr">1</text></g><g transform="translate(476.26800498193506 898.7777777777756) rotate(0 7.5 13)"><text x="15" y="18" font-family="Virgil, Segoe UI Emoji" font-size="20px" fill="#000000" text-anchor="end" style="white-space: pre;" direction="ltr">2</text></g><g transform="translate(407.9346716486016 898.7777777777756) rotate(0 7.5 13)"><text x="15" y="18" font-family="Virgil, Segoe UI Emoji" font-size="20px" fill="#000000" text-anchor="end" style="white-space: pre;" direction="ltr">3</text></g><g transform="translate(342.26800498193506 898.7777777777756) rotate(0 7 13)"><text x="14" y="18" font-family="Virgil, Segoe UI Emoji" font-size="20px" fill="#000000" text-anchor="end" style="white-space: pre;" direction="ltr">4</text></g><g transform="translate(279.9346716486016 898.7777777777756) rotate(0 6.5 13)"><text x="13" y="18" font-family="Virgil, Segoe UI Emoji" font-size="20px" fill="#000000" text-anchor="end" style="white-space: pre;" direction="ltr">5</text></g><g transform="translate(217.26800498193506 898.7777777777756) rotate(0 7 13)"><text x="14" y="18" font-family="Virgil, Segoe UI Emoji" font-size="20px" fill="#000000" text-anchor="end" style="white-space: pre;" direction="ltr">6</text></g><g transform="translate(152.60133831526855 898.7777777777756) rotate(0 6 13)"><text x="12" y="18" font-family="Virgil, Segoe UI Emoji" font-size="20px" fill="#000000" text-anchor="end" style="white-space: pre;" direction="ltr">7</text></g><g transform="translate(78.60133831526855 898.7777777777756) rotate(0 8 13)"><text x="16" y="18" font-family="Virgil, Segoe UI Emoji" font-size="20px" fill="#000000" text-anchor="end" style="white-space: pre;" direction="ltr">8</text></g><g transform="translate(18.268004981935064 898.7777777777756) rotate(0 6.5 13)"><text x="13" y="18" font-family="Virgil, Segoe UI Emoji" font-size="20px" fill="#000000" text-anchor="end" style="white-space: pre;" direction="ltr">9</text></g><g transform="translate(390.26800498193506 796.1111111111077) rotate(0 0.00005000000010113581 0.00004999999964638846)" stroke="none"><path fill="#000000" d="M 1.57,-1.57 Q 1.57,-1.57 1.77,-1.27 1.98,-0.98 2.09,-0.64 2.20,-0.29 2.19,0.05 2.18,0.41 2.05,0.75 1.93,1.09 1.70,1.37 1.48,1.65 1.18,1.84 0.87,2.04 0.52,2.12 0.18,2.21 -0.17,2.18 -0.53,2.15 -0.86,2.01 -1.19,1.87 -1.46,1.63 -1.73,1.39 -1.90,1.07 -2.08,0.76 -2.15,0.41 -2.21,0.05 -2.17,-0.29 -2.12,-0.65 -1.96,-0.97 -1.80,-1.29 -1.54,-1.54 -1.29,-1.80 -0.97,-1.96 -0.65,-2.12 -0.29,-2.17 0.06,-2.21 0.41,-2.15 0.76,-2.08 1.07,-1.90 1.39,-1.73 1.63,-1.46 1.87,-1.19 2.01,-0.86 2.15,-0.53 2.18,-0.17 2.21,0.18 2.12,0.52 2.03,0.87 1.84,1.18 1.65,1.48 1.37,1.70 1.09,1.93 0.75,2.05 0.41,2.18 0.05,2.19 -0.30,2.20 -0.64,2.09 -0.98,1.98 -1.27,1.77 -1.57,1.56 -1.57,1.57 -1.57,1.57 -1.73,1.35 -1.90,1.14 -2.01,0.90 -2.12,0.66 -2.16,0.39 -2.21,0.13 -2.20,-0.13 -2.18,-0.40 -2.10,-0.65 -2.02,-0.91 -1.88,-1.14 -1.74,-1.36 -1.55,-1.55 -1.36,-1.74 -1.14,-1.88 -0.91,-2.02 -0.65,-2.10 -0.40,-2.18 -0.13,-2.20 0.13,-2.21 0.39,-2.16 0.66,-2.12 0.90,-2.01 1.14,-1.90 1.35,-1.73 1.57,-1.57 1.57,-1.57 L 1.57,-1.57 Z"></path></g><g stroke-linecap="round" transform="translate(152.3513383152681 476.94444444444343) rotate(0 146 108.33333333333394)"><path d="M0 0 C0 0, 0 0, 0 0 M0 0 C0 0, 0 0, 0 0 M-0.5 6.1 C0.86 5.78, 2.02 3.06, 5.68 0.56 M-0.29 6.75 C1.54 4.64, 3.21 2.74, 5.03 0.12 M0.24 11.62 C2.9 8.1, 4.02 6.66, 11.87 0.77 M-0.31 11.78 C2.95 9.27, 5.47 4.69, 10.37 0.44 M-0.16 17.97 C6.92 10.74, 11.26 7.76, 16.76 0.03 M-0.24 19.18 C5.55 11.28, 9.88 6.79, 16.21 0.85 M0.34 23.61 C7.74 13.26, 17 6, 21.39 -1.2 M-0.43 23.97 C7.95 16.12, 13.62 8.72, 21.79 0.74 M0.02 29.98 C5.3 21.6, 13.96 14.2, 25.86 -1.05 M0.99 30.71 C5.73 22.71, 13.63 15.31, 26.65 0.15 M-1.87 36.75 C12.28 22.63, 20.97 9.97, 32.65 -0.51 M0.47 37.3 C9.68 27.34, 17.89 17.18, 32.44 0.1 M-0.51 42.44 C9.33 28.34, 21.35 17.48, 38.28 -0.81 M-0.86 42.5 C14.53 25.78, 28.45 11.5, 36.87 1 M1.09 47.1 C8.55 38.11, 20.05 22.54, 41.05 1.02 M0.09 48.46 C14.5 33.91, 28.4 17.44, 43.15 -0.1 M-0.77 53.46 C11.81 38.8, 26.8 27.21, 48.43 -1.37 M1.17 54.73 C16.11 38.66, 29.63 21.39, 47.97 0.82 M0.86 61.43 C13 45.17, 24.62 31.79, 52.83 0.72 M0.96 60.56 C17.3 42.2, 31.95 23.78, 52.98 -0.03 M-1.3 69.24 C16.09 47.83, 34.74 26.07, 58.91 1.53 M-0.43 66.92 C11.71 53.39, 25.38 38.67, 58.74 0.09 M1.89 72.12 C24.07 45.74, 46.58 19.28, 63.4 1.25 M-0.09 73.03 C18.13 51.48, 38.23 30.58, 64.19 -0.29 M0.51 79.05 C19.75 55.79, 43.37 32.43, 70.44 0.47 M-0.06 79.9 C20.86 55.74, 40.75 32.75, 68.64 -0.6 M-1.21 83.87 C26.91 55.37, 51.23 24.5, 75.33 0.61 M0.47 85.37 C19.24 62.07, 39.72 39.28, 75.2 -0.9 M0.42 89.78 C18.45 71.72, 33.12 53.01, 79.91 -1.63 M0.13 91.36 C24.73 61.64, 51.22 32.27, 78.79 0.38 M1.68 96.49 C27.98 63.19, 56.58 29.53, 84.34 -1.84 M-0.82 96.93 C19.39 76.23, 37.77 54.91, 85.59 -0.29 M0.04 104.92 C32 64.52, 66.52 27.8, 90.38 -1.48 M-0.23 103.79 C27.75 69.63, 57.3 36.7, 91 0.77 M0.78 107.88 C20.39 88.36, 40.99 63.95, 97.29 0.58 M-0.8 110.86 C21.8 85.24, 43.87 60.42, 95.13 -0.31 M0.12 115.27 C35.43 76.22, 68.27 36.01, 101.05 -1.48 M0.7 116.26 C28.02 82.29, 56.57 50.66, 100.74 -0.63 M0.53 120.52 C25.17 94.36, 49.17 65.28, 106.22 -0.07 M-0.58 121.66 C20 97.11, 42.35 71.42, 106.74 -1.26 M-2.1 129.76 C33.83 92.01, 61.98 56.23, 113.27 0.34 M-0.75 128.2 C25.87 97.02, 53.22 66.26, 112.15 -0.94 M0.14 132.5 C24.29 104.33, 53.04 71.17, 117.67 0.33 M0.04 133.15 C41.92 85.28, 81.82 38.37, 116.89 -0.08 M-0.24 138.38 C32.29 106.91, 60.11 69.58, 120.56 0.28 M-0.1 141.33 C47.06 84.33, 95.95 28.58, 121.05 -0.2 M-0.97 144.26 C25.58 116.03, 53.18 84.1, 125.29 1.01 M0.95 146.22 C39.2 104.84, 75.16 60.63, 127.15 -0.4 M-0.65 150.92 C52.1 92.04, 106 30.95, 130.8 -0.91 M0.31 153.13 C27.72 119.22, 56.72 87.57, 131.99 -0.33 M-1.73 157.49 C42.03 111.6, 86.77 60.97, 136.11 -1.04 M0 158.64 C46.27 102.21, 93.47 47.44, 137.34 0.91 M1.59 163.23 C29.9 129.64, 60.65 94.87, 143.21 -0.48 M0.95 165.13 C42.67 116.64, 85.87 68.5, 142.97 -0.28 M0.23 169.5 C43.61 119.71, 88.4 72.09, 146.51 -0.76 M0.69 170.88 C36.19 129.98, 72.33 87.49, 148.9 0.13 M1.63 176.77 C47.35 124.52, 89.98 71.45, 152.6 0.85 M-0.13 176.4 C52.28 118.04, 102.57 59.6, 153.06 -0.74 M0.73 184.11 C35.32 140.22, 70.66 99.9, 159.81 -1.1 M-0.35 182.06 C36.18 139.88, 73.86 97.27, 158.17 -0.31 M0.4 189.62 C59.84 123.35, 116.08 58.46, 164.28 1.09 M-0.3 189 C56.36 124.76, 112.74 59.89, 164.38 0.2 M-0.09 196.09 C68.08 116.74, 134.2 42.82, 170.1 -0.33 M0.7 194.88 C58.3 125.34, 117.72 56.92, 169.37 -0.3 M-1.63 202.18 C42.62 155.01, 85.16 105.74, 175.11 -1.21 M-0.72 200.69 C37.62 157.02, 74.69 113.03, 174.6 -0.48 M-0.4 207.35 C35.06 165.16, 71.17 121.16, 180.85 -0.52 M-0.05 207.08 C64.06 132.8, 129.47 57.41, 180.09 0.72 M-0.42 213.3 C54.88 151.28, 108.43 89.44, 185.5 0.57 M0.46 213.54 C38.54 167.79, 77.47 121.65, 185.98 0 M2.15 217.58 C53.86 157.16, 107.02 96.56, 189.99 0.5 M0.41 218.22 C44.99 169.84, 86.21 121.65, 190.6 -0.1 M6.73 217.71 C81.35 131.96, 157.32 46.73, 197.44 0.69 M6.98 217.89 C49.23 169.89, 91.7 121.29, 196.59 -0.31 M11.04 216.8 C82.07 137.95, 149.04 57.61, 200.89 1.3 M12.38 218.09 C50.62 172.77, 91.17 125.88, 201.27 -0.48 M15.98 217.08 C78.48 147.72, 138.1 80.53, 207 -1.48 M16.67 218.19 C77.38 147.43, 136.83 80.3, 207.36 -0.96 M22.95 218.72 C63.03 171.21, 101.83 126.72, 211.7 1.5 M22.48 217.66 C97.91 130.15, 173.89 44.15, 211.84 -0.06 M28.99 218.65 C99.07 135.74, 170.41 56.01, 217.87 -0.41 M28.39 217.03 C66.65 173.95, 105.34 129.05, 218.18 0.07 M33.97 216.95 C88.73 151.62, 145.84 85.89, 223 0.23 M33.65 218.12 C106.31 135.58, 177.45 53.03, 222.18 0.47 M38.74 218.62 C108.47 136.57, 180.47 53.94, 227.86 -0.78 M39.04 217.44 C110.31 135.4, 182.58 53.14, 228.7 -0.44 M43.32 218.92 C104.15 148.36, 165.34 81.11, 233.2 0.61 M44.08 218.49 C108.71 142.24, 172.49 69.27, 233.03 0.1 M48.06 217.2 C102.47 158.21, 155.7 99.12, 238.74 -0.29 M49.41 217.61 C119.32 137.09, 188.58 58.45, 238.42 -0.36 M54.83 217.27 C106.7 160.41, 159.43 101.71, 243.12 -0.75 M53.98 217.82 C127.69 133.99, 200.72 49.52, 243.77 -0.24 M59.16 217.13 C119.67 151.72, 176.77 83.2, 248.37 -0.1 M60.44 217.67 C109.27 158.97, 157.91 102.49, 248.57 0.99 M63.45 218.42 C139.37 131.72, 213.23 47.4, 254.41 -0.18 M64.81 217.51 C107.9 166.7, 150.44 116.63, 254.66 0.05 M69.11 219.15 C118.07 158.58, 169.51 102.02, 260.25 1.1 M70.91 217.43 C111.28 169.92, 152.63 122.81, 258.89 0.58 M74.75 217.05 C118.09 168.68, 160.57 121.01, 265.11 -0.55 M75.52 217.48 C129.35 153.8, 184.38 90.18, 264.57 0.53 M80.34 217.46 C123.48 172.05, 162.48 124.47, 269.65 -0.35 M81.27 217.13 C147.73 140.54, 212.7 65.67, 269.57 -0.05 M85.41 218.58 C148.97 148.22, 208.56 77.78, 277.12 -0.71 M86.33 218.49 C162.19 133.03, 236.02 48.95, 276.28 0.41 M93.17 216.33 C167 130.15, 241.46 43.71, 279.48 1.16 M91.31 218.22 C130.94 172.89, 171.96 126.23, 281.26 0.71 M96.73 216.71 C166.84 138.44, 236.92 57.41, 285.68 0.01 M96.45 218.32 C147.42 159.77, 197.07 103, 286.66 -0.65 M101.25 216.53 C160.87 155.05, 216.06 88.04, 292.75 0.97 M102.49 218.04 C166.58 143.45, 231.43 68.54, 291.39 0.76 M107.13 218.89 C154.63 162.18, 201.39 108.34, 293.99 2.54 M107.87 218.61 C154.81 164.13, 201.64 109.3, 294.53 1.97 M113.52 217.55 C183.49 137.5, 253.54 53.77, 294.86 9.01 M111.95 218.92 C168.42 150.2, 226.53 84.99, 295.19 7.86 M116.58 217.79 C185.67 137.52, 257.37 56.76, 293.27 13.29 M118.57 218 C152.93 176.02, 190.54 135.48, 295.1 14.84 M122.02 219.26 C156.58 179.65, 191.29 138.44, 294.48 21.11 M123.5 218.29 C170.47 163.77, 217.77 108.67, 294.19 20.81 M128.41 216.85 C164.15 177.91, 201.17 133.94, 295.98 26.28 M129.25 217.45 C191.01 143.29, 254.01 71.45, 293.83 27.67 M133.11 218.49 C172.78 172.65, 211.42 128.43, 295.35 30.93 M133.71 218.63 C170.31 179.01, 206.13 137.89, 294.48 33.14 M138.13 216.88 C180.44 169.5, 224.18 118.5, 293.62 37.78 M139.64 218.13 C194.59 157.38, 247.16 95.74, 295.31 39.48 M143.81 217 C184.56 171.86, 221.93 127.98, 294.09 45.08 M144.66 217.34 C191.39 164.96, 236.39 112.91, 294.89 45.12 M151.17 217.39 C196.71 164.32, 242.96 112.74, 295.61 50.75 M149.1 217.1 C189.46 174.04, 227.76 130.07, 294.37 51.41 M155.25 218.02 C183.04 184.61, 216.17 148.33, 294.32 58.5 M154.45 218.08 C201.72 164.2, 249.2 109.1, 295 56.55 M161.3 218.1 C192.31 179.4, 226.17 144.91, 294 64.38 M161.1 218.24 C190.24 181.2, 221.46 147.26, 294.23 63.5 M164.21 217.22 C203.75 174.35, 243.89 129.04, 294.49 70.07 M164.68 218.32 C204.06 172.27, 243.14 127.62, 295.57 68.75 M172.82 217.15 C211.9 169.67, 253.01 123.67, 294.99 76.11 M171.97 217.74 C210.05 172.06, 250.17 127.8, 295.37 76.16 M176.12 218.87 C209.54 182.06, 241.43 143.43, 295.77 81.46 M176.71 218.47 C203.87 187.46, 231.9 156.89, 294.78 80.78 M180.63 216.67 C205.75 189.78, 228.58 160.56, 295.32 87.52 M181.69 216.99 C219.29 175.32, 256.84 132.36, 294.53 87.95 M187.84 218.71 C229.71 171.17, 268.82 121.82, 295.39 93.41 M187.77 217.63 C220.32 180.57, 251.17 143, 294.63 94.38 M191.98 217.39 C225.57 179.06, 254.58 143.59, 294.3 100.5 M192.35 216.84 C219.92 187.2, 248.3 155.24, 295.37 99.44 M197.35 217.85 C220.04 193.08, 243.22 166.43, 296.1 107.55 M198.34 218.49 C231.27 177.53, 266.31 138.5, 295.08 106.2 M204.14 216.33 C238.46 178.84, 274.15 136.26, 295.18 111.39 M202.62 218.14 C226.53 191.42, 250.3 164.23, 294.45 110.95 M209.76 216.71 C232.7 188.99, 253.94 163.63, 294.81 117.63 M209.04 218.31 C242.75 178.53, 276.31 137.62, 293.73 117.74 M214.59 216.86 C247.53 179.13, 277.67 143.35, 294.37 125.83 M212.84 216.81 C244.62 181.36, 275.96 144.95, 295.53 124.39 M219.36 217.11 C246.49 184.14, 275.16 151.9, 296.59 131.98 M217.68 217.94 C241.49 192.33, 263.69 165.97, 294.86 130.81 M222.92 218.68 C241.14 200.52, 255.12 182.53, 294.77 137.6 M224.04 216.86 C246.48 191.95, 269.56 166.22, 293.87 137 M227.58 216.16 C244.88 199.66, 259.07 184.51, 295.33 140.53 M230.25 218.8 C247.07 197.36, 265.93 176.41, 295.12 141.57 M236.25 216.62 C256.62 194.29, 279.16 166.03, 294.42 147.54 M234.25 218.14 C250.2 200.25, 266.87 181.3, 293.86 149.33 M241.03 216.34 C254.44 199.02, 270.64 183.19, 295.08 153.55 M239.89 217.89 C261.09 193.59, 283.94 168.41, 295.8 154.24 M245.82 219.54 C255.17 202.74, 269.42 189.41, 296.54 162.09 M244.15 218.29 C264.65 196.8, 283.19 174.56, 294.11 160.78 M249.45 219.48 C264.94 199.97, 280.3 185.6, 295.38 168.43 M249.94 218.79 C262.52 203.36, 277.4 187.91, 295.22 166.89 M257.04 216.96 C265.99 204.61, 281.6 190.85, 294.15 172.29 M256.11 218.33 C264.07 208.04, 271.24 200.48, 295.06 173.56 M259.75 216.73 C270.27 208.45, 274.93 202.68, 295.91 180.59 M260.88 218.65 C271.59 206.25, 280.11 195.46, 294.34 179.38 M266.15 217.96 C275.37 209, 285.29 199.77, 295.45 184.54 M265.84 218.56 C271.39 210.3, 277.77 203.38, 295.32 184.48 M269.99 218.61 C278.86 208.84, 289.01 200.6, 294.53 190.12 M271.38 217.21 C281.37 206.94, 288.56 197.67, 293.81 190.93 M277.54 217.96 C282.29 208.24, 291.6 201.37, 293.12 199.29 M276.72 218.39 C281.09 213.61, 285.28 207.6, 293.99 198.66 M283.34 217 C284.74 213.84, 287.72 208.76, 295.86 204.58 M283.25 217.78 C287.11 213.25, 289.85 208.84, 295.59 204.04 M286.52 217.34 C290.18 216.35, 290.39 214.68, 293.73 209.96 M287.09 217.64 C289.57 215.15, 291.72 212.33, 294.49 209.65" stroke="#228be6" stroke-width="0.5" fill="none"></path><path d="M-0.4 -0.48 C103.53 -2.35, 205.39 -3.41, 292.32 0.77 M-0.54 0.24 C78.34 1.11, 158.05 1.48, 292.42 0.19 M291.37 1.32 C294.25 69.78, 292.23 140.32, 293.55 217.44 M292.03 -0.39 C291.47 54.2, 291.2 108.01, 292.63 217.42 M293.17 216.07 C217 214.98, 145.49 216.62, 1.41 215.7 M291.81 216.27 C208.03 214.79, 124.69 215.38, 0.49 216.39 M1.47 217.78 C1.11 149.81, -0.69 80.61, 1.1 1.62 M-0.48 217.23 C-1.01 130.36, -0.83 45.07, 0.16 0.22" stroke="#000000" stroke-width="1" fill="none"></path></g><g transform="translate(157.3513383152681 571.2777777777774) rotate(0 141 14)"><text x="141" y="21" font-family="Cascadia, Segoe UI Emoji" font-size="20px" fill="#000000" text-anchor="middle" style="white-space: pre;" direction="ltr">bin2bcd</text></g><g stroke-linecap="round"><g transform="translate(302.4961830813436 780.2063072515393) rotate(0 1.2523472924251564 -41.930187744495925)"><path d="M-1.07 2.56 C-0.52 -11.58, 1.29 -67.78, 1.46 -82.65 M3.55 1.49 C3.88 -13.6, 0.23 -72.09, -0.81 -86.42" stroke="#000000" stroke-width="4" fill="none"></path></g><g transform="translate(302.4961830813436 780.2063072515393) rotate(0 1.2523472924251564 -41.930187744495925)"><path d="M14.92 -59.04 C11.25 -67.73, 2.67 -71.51, 0.1 -85.05 M11.25 -58.21 C7.83 -63.29, 7.9 -70.37, -1.49 -88.16" stroke="#000000" stroke-width="4" fill="none"></path></g><g transform="translate(302.4961830813436 780.2063072515393) rotate(0 1.2523472924251564 -41.930187744495925)"><path d="M-5.55 -57.71 C-4.43 -66.56, -8.18 -70.65, 0.1 -85.05 M-9.23 -56.88 C-8.55 -62.15, -4.36 -69.49, -1.49 -88.16" stroke="#000000" stroke-width="4" fill="none"></path></g></g><g stroke-linecap="round"><g transform="translate(384.8513383152672 470.55555555555475) rotate(0 1.2390740721577913 -46.99227699073799)"><path d="M0.27 -0.91 C0.45 -16.73, 0.76 -79.58, 1.18 -95.21 M-1.05 1.22 C-0.48 -14.35, 2.94 -77.31, 3.53 -93.63" stroke="#000000" stroke-width="1" fill="none"></path></g><g transform="translate(384.8513383152672 470.55555555555475) rotate(0 1.2390740721577913 -46.99227699073799)"><path d="M10.96 -66.15 C9.93 -72.21, 8.08 -83.01, 4.41 -94.39 M13.13 -65.51 C9.47 -72.32, 8.8 -78.48, 3.8 -94.14" stroke="#000000" stroke-width="1" fill="none"></path></g><g transform="translate(384.8513383152672 470.55555555555475) rotate(0 1.2390740721577913 -46.99227699073799)"><path d="M-9.54 -67.1 C-4.29 -72.91, 0.14 -83.42, 4.41 -94.39 M-7.37 -66.45 C-6.02 -73.03, -1.69 -78.96, 3.8 -94.14" stroke="#000000" stroke-width="1" fill="none"></path></g></g><g stroke-linecap="round"><g transform="translate(224.5735605374898 466.2500000000018) rotate(0 0.32444680315279584 -47.65693439216193)"><path d="M-0.57 0.09 C-0.6 -15.84, -1.11 -79.46, -0.84 -95.41 M1.32 -0.9 C1.74 -16.66, 1.51 -78.34, 1.44 -93.94" stroke="#000000" stroke-width="1" fill="none"></path></g><g transform="translate(224.5735605374898 466.2500000000018) rotate(0 0.32444680315279584 -47.65693439216193)"><path d="M11.96 -67.18 C9.01 -70.87, 6.14 -79.7, 1.41 -92.87 M12.29 -65.78 C7.67 -77.39, 3.76 -87.39, 1.68 -94.13" stroke="#000000" stroke-width="1" fill="none"></path></g><g transform="translate(224.5735605374898 466.2500000000018) rotate(0 0.32444680315279584 -47.65693439216193)"><path d="M-8.57 -67.1 C-6.52 -70.72, -4.4 -79.57, 1.41 -92.87 M-8.23 -65.7 C-5.04 -77.41, -1.14 -87.44, 1.68 -94.13" stroke="#000000" stroke-width="1" fill="none"></path></g></g><g stroke-linecap="round" transform="translate(163.57356053749027 229.72222222222445) rotate(0 60 66.5)"><path d="M0 0 C0 0, 0 0, 0 0 M0 0 C0 0, 0 0, 0 0 M-0.32 6.59 C2.14 4.51, 3.21 1.31, 4.32 0.22 M-0.08 6.2 C1.37 4.82, 2.75 3.35, 4.85 0.71 M-0.22 12.08 C2.49 10.14, 5.39 5.84, 11.17 -0.4 M0.55 12.83 C3.74 8.29, 6.62 4.01, 10.86 0.22 M0.69 19.96 C6.16 13.58, 8.83 8.5, 16.9 0.45 M0.29 18.93 C5.11 11.32, 11.23 5.85, 15.53 -0.42 M-0.2 22.75 C6.14 19.11, 9.7 12.94, 20.78 0.32 M-0.19 24.3 C8.25 15.4, 13.61 8.31, 20.32 0.13 M-0.91 30.73 C5.99 22.27, 11.61 17.43, 27.5 0.52 M0.06 30.63 C7.32 21.9, 15.95 12.09, 27.24 1.25 M-1.42 35.3 C6.73 26.84, 13.27 18.12, 33.36 -1.26 M-0.14 37.24 C6.91 29.02, 13.7 20.82, 31.8 -0.16 M0.88 41.69 C14.41 25.53, 28.17 13.03, 37.63 -0.5 M0.18 42.76 C13.48 29.3, 23.67 14.11, 37.08 0.7 M1.74 47.66 C9.88 39.8, 15.36 27.97, 42.42 -1.51 M-0.51 49.74 C16.59 29.19, 34.44 9.61, 43.15 -0.22 M1.26 52.68 C13.8 37.45, 26.59 23.64, 47.96 1.06 M0.49 54.62 C18.16 33.85, 35.07 13.48, 47.05 0.48 M-0.84 60.37 C12.25 47.11, 22.64 34.7, 52.44 -1.37 M0.11 60.04 C15.34 43.42, 29.31 27.39, 52.3 -1.1 M-2.04 67.67 C22.81 42.86, 41.3 17.63, 59.31 -0.83 M0.33 66.85 C17.68 47.11, 32.94 29.52, 58.81 0.18 M1.55 71.53 C16.38 55.86, 30.52 38.93, 65.09 -0.43 M-0.57 72.68 C14.33 56.96, 27.06 40.76, 64.39 -0.27 M-0.18 77.66 C11.67 63.25, 28.78 47.65, 70.67 0.17 M0.21 79.42 C26.76 47.41, 54.09 16.96, 68.69 -0.48 M1.77 83.62 C14.37 67.46, 31.64 47.17, 73.17 1.09 M-0.15 84.3 C23.78 56.25, 48.4 29.49, 74.69 -0.62 M0.87 91.31 C15.6 70.42, 32.97 50.38, 81.19 0.75 M0.83 91.13 C30.37 56.62, 61.4 21.69, 78.68 -0.73 M0.18 98.18 C18.17 73.44, 40 54.21, 86.66 0.26 M-1.22 97.36 C23.94 71.41, 47.29 42.15, 85.68 0.55 M0.97 101.84 C21.34 79.38, 41.92 55, 88.15 1.92 M0.71 103.6 C34.62 64.34, 68.96 25.17, 89.47 0.28 M1.27 110.86 C19.24 85.13, 41.4 63.34, 94.68 1.55 M0.26 110.15 C28.9 75.45, 57.15 41.39, 96 0.49 M-0.91 113.82 C29.83 80.04, 63.66 40.92, 101.02 -0.95 M0.54 115.03 C27.88 81.4, 57.13 48.88, 101.4 0.47 M-0.3 121.9 C41.02 74.96, 78.25 31.04, 107.52 -1.26 M0.06 122.29 C21.7 96.09, 44.44 71.23, 105.45 0.05 M-1.24 129.92 C34.73 88.91, 71.57 44.89, 111.41 -0.14 M-0.44 127.97 C30.09 94.51, 60.76 59.54, 111.5 -0.14 M1.62 134.38 C43.94 84.09, 87.24 36.77, 117.95 1.72 M-0.09 133.97 C35.54 92.85, 69.2 54.51, 115.35 -0.6 M6.5 135.09 C46.29 84.07, 85.6 39.82, 122.41 -0.85 M5.01 134.47 C29.61 102.98, 54.74 74.62, 121.79 0.29 M9.85 131.92 C48.74 90.59, 84.59 52.14, 119.98 6.24 M11.75 132.64 C46.05 94.09, 80.46 54.26, 120.27 6.84 M16.8 134.19 C46.24 99.09, 75.81 63.13, 122.78 13.88 M16.14 132.74 C50.83 93.98, 84.35 54.91, 120.46 13.48 M22.36 132.36 C46.29 105.26, 71.03 74.71, 120.02 17.37 M21.16 133.73 C50.37 99.41, 80.81 66.71, 120.18 19.18 M28.71 134.47 C55.39 103.81, 79.6 70.64, 119.77 26.24 M27.74 132.56 C56 100.99, 84.96 67.88, 121.73 25.12 M30.43 133.32 C49.26 114, 66.45 91.94, 121.55 32.99 M32.59 133.17 C57.78 103.23, 83.35 74.58, 122.18 30.3 M39 135.19 C58 107.9, 79.13 85.14, 122.93 35.79 M38.39 134.04 C66.77 99.88, 94.48 67.3, 120.61 38.02 M41.49 134.51 C68.48 105.96, 97.23 73.46, 122.66 43.62 M43.11 134.72 C60.86 112.96, 79.95 91.76, 120.93 43.93 M47.62 135.01 C75.16 103.77, 98.98 75.25, 120 50.73 M48.79 133.85 C62.88 116.89, 76.67 99.64, 121.83 50.32 M53.15 132.23 C69.13 117.11, 85.03 97.68, 121.89 57.84 M53.51 133.46 C72.49 111.05, 93.86 87.65, 121.61 56.13 M59.65 133.89 C81.06 106.56, 105.43 80.78, 121.52 62.82 M58.86 134.23 C76.34 114.37, 92.03 95.23, 121.44 61.51 M65.83 134.37 C84.2 111.65, 105.18 86.75, 122.94 69.36 M63.91 133.8 C83.44 111.44, 103.44 87.33, 121.56 67.3 M71.35 135.14 C84.15 116.33, 98.54 99.33, 122.2 74.18 M68.67 134.02 C85.34 115.62, 99.61 98.48, 121.15 74.13 M76.11 135.19 C85.22 119.29, 99.39 106.59, 120.68 79.46 M74.09 133.25 C87.02 119.24, 99.59 104.3, 121.28 79.66 M80.12 131.45 C90.15 120.23, 100.76 109.54, 122.24 88.02 M79.47 133.62 C91.7 120.5, 105.12 106.25, 120.72 85.59 M86.73 133.27 C96.48 120.33, 106.92 108.81, 121.8 92.03 M84.5 133.36 C93.33 124.58, 101.03 115.59, 122.15 91.24 M90.53 134.81 C104.3 120.5, 113.73 107.14, 119.97 99.65 M90.67 134.02 C98.15 124.41, 106.29 114.06, 121.51 98.08 M96.58 133.53 C101.91 126.19, 107.75 120.79, 122.15 104.28 M95.27 132.8 C101.19 127.82, 106.98 120.47, 120.69 103.69 M100.29 134.57 C106.38 125.76, 113.64 119.92, 121.91 110.96 M100.86 133.78 C105.28 127.65, 110.82 121.96, 121.61 110.14 M106.7 133.25 C113.1 127.15, 117.97 120.46, 120.07 117.56 M107.22 134.27 C112.36 128.31, 117.93 120.74, 120.94 117.94 M110.83 131.97 C113.01 131.86, 114.96 129.95, 119.95 121.81 M112.6 133.79 C116.14 129.52, 119.63 124.61, 121.38 122.64 M117.45 133.12 C117.67 132.66, 118.58 131.37, 121.02 128.81 M117 133.59 C118.58 131.83, 119.84 130.21, 120.74 128.82" stroke="#82c91e" stroke-width="0.5" fill="none"></path><path d="M-1.97 -0.09 C36 0.12, 70.11 0.85, 118.82 1.46 M0.07 0.97 C41.65 -0.64, 82.15 -0.9, 120.27 -0.32 M119.42 0.09 C120.26 38.29, 120.32 77.99, 120.14 131.01 M120.75 0.54 C120.69 40.39, 120.22 79.6, 119.69 133.61 M118.81 131.25 C93.45 135.02, 70.33 134.31, -1.21 133.44 M120.99 133.07 C90.1 133.8, 58.62 133.66, 0.74 132.48 M1.31 134.94 C1.66 98.83, 0.93 66.37, -1.99 1.81 M-0.33 133.05 C-0.6 91.46, -1.58 49.48, 0.57 0.42" stroke="#000000" stroke-width="1" fill="none"></path></g><g transform="translate(168.57356053749027 282.22222222222445) rotate(0 55 14)"><text x="55" y="21" font-family="Cascadia, Segoe UI Emoji" font-size="20px" fill="#000000" text-anchor="middle" style="white-space: pre;" direction="ltr">bin2hex</text></g><g stroke-linecap="round" transform="translate(326.24022720415724 231.55555555555475) rotate(0 60 66.5)"><path d="M0 0 C0 0, 0 0, 0 0 M0 0 C0 0, 0 0, 0 0 M-0.15 5.63 C1.88 4.56, 1.98 3.08, 4.55 0.19 M-0.63 6.34 C1.34 4.16, 2.68 2.92, 5.37 0.24 M0.39 11.04 C2.4 10.33, 3.72 6.67, 10.16 -0.34 M-0.63 11.45 C4.65 8.16, 7.72 2.71, 10.22 0.54 M-0.17 19.51 C5.5 12.92, 11.45 3.28, 16.56 -1.01 M-0.58 17.87 C2.89 14.8, 7.07 9.07, 16.52 1.05 M0.57 25.96 C7.35 18.96, 12.96 11.83, 20.32 0.84 M0.09 23.16 C8.12 16.14, 13.62 7.3, 21.37 0.04 M0.67 30.34 C8.61 18.13, 21.22 8.5, 27.72 1.82 M-0.73 31.45 C6.97 22.93, 13.36 14.05, 25.95 0.55 M-1.21 35.04 C9.65 26.3, 22.44 13.45, 30.36 -0.93 M-0.56 37 C11.71 22.25, 23.53 8.13, 31.14 0.71 M-1.38 43.46 C13.31 30.85, 24.23 15.29, 36.25 -1.15 M0.82 41.57 C6.91 34.69, 16.03 24.79, 36.44 0.07 M-0.57 48.83 C13.8 30.32, 31.18 17.07, 41.45 -0.98 M-0.35 48.86 C14.9 31.01, 30.36 13.33, 42.51 -1.12 M-0.93 53.5 C18.93 33.97, 36.74 14.99, 49.34 1.68 M0.11 54.48 C15.41 36.13, 32.82 17.62, 48.23 0.25 M1.16 61.54 C11.95 46.99, 25.11 31.71, 54.22 -0.37 M-0.72 60.2 C17.89 42.23, 35.41 22.27, 53.17 -0.59 M-1.87 66.02 C16.59 49.14, 32.02 26.88, 56.56 1.06 M-0.92 67.87 C16.44 46.5, 35.42 27.13, 58.67 -0.08 M1.67 73.81 C14.22 54.86, 31.25 35.74, 62.65 -0.02 M0.58 73.92 C17.83 52.75, 35.88 32.77, 64.36 -1.15 M-0.78 80.46 C24.44 53.8, 47.68 25.05, 67.81 0.89 M-0.75 78.83 C14.1 61.86, 27.27 46.67, 69.17 1.07 M-1.02 83.42 C26.08 57.59, 47.73 26.27, 76.06 1.29 M-0.09 84.07 C16.52 67.15, 31.85 48, 73.9 0.4 M-0.87 92.68 C19.76 69.86, 34.73 51.02, 79.32 0.25 M0.72 91.38 C27.36 60.44, 52.76 30.91, 80.22 -0.13 M0.8 96.06 C27.48 68.04, 54.94 35.86, 85.1 0.96 M0.05 97.64 C24.1 69.98, 47.51 43.85, 85.22 -1.07 M0.63 101.97 C27.88 70.27, 55.26 38.81, 91.68 -0.66 M-0.17 104.45 C19.08 81.01, 37.13 60.24, 90.4 -0.34 M1.16 108.31 C35.47 65.88, 73.36 24.91, 95.79 -1.46 M-0.18 110.52 C36.04 69.75, 71.14 27.31, 96.28 -0.01 M1.88 113.72 C23.32 90.78, 46.38 64.86, 99.82 1.55 M-0.49 115.67 C36.38 75.58, 71.28 33.27, 101.35 -0.05 M-1.56 122.18 C37.59 79.08, 74.92 33.4, 107.48 -2.27 M-0.86 121.04 C38.67 75.73, 78.35 31.25, 106.65 -1.18 M1.67 130.28 C26.01 98.87, 53.38 65.35, 111.01 -0.59 M-0.41 129.07 C36.49 83.93, 75.9 40.91, 110.8 -0.58 M0.71 131.32 C31.73 96.63, 62.06 60.56, 118.21 1.15 M1.34 133.19 C40.43 86.85, 81.14 39.22, 115.83 0.05 M6.06 135.09 C38.59 95.43, 76.11 55.55, 122.22 1.35 M6.38 134.3 C43.57 92.3, 80.4 49.53, 120.89 1.69 M10.88 134.74 C47.19 91.44, 85.69 48.14, 119.42 8.09 M11.34 133.32 C41.69 95.9, 74.06 59.54, 120.92 6.54 M17.24 134.29 C56.66 87.78, 100.22 39.18, 122.21 10.79 M16.57 133.27 C46.66 98.39, 78.04 61.58, 121.33 13.35 M21.22 134.46 C57.56 89.29, 98.47 43.96, 119.15 17.97 M21.12 132.84 C41.1 108.7, 63.23 84.54, 120.9 19.77 M26.12 135.22 C61.25 92.74, 96.42 51.8, 120.49 25.17 M26.79 133.55 C50.33 106.5, 74.41 78.78, 121.26 26.02 M31.48 133.12 C60.47 105.15, 87.24 73.43, 122.72 29.83 M32.94 134.77 C52.57 110.77, 71.17 87.97, 122.22 30.36 M37.55 132.08 C71.15 97.89, 100.55 59.83, 123 36.12 M37.86 133.12 C57.92 112.04, 75.46 90.07, 120.03 37.58 M43.75 132.24 C65.98 106.6, 87.85 81.31, 122.2 42.17 M43.06 133.03 C63.78 109.24, 86.13 82.45, 121.33 42.91 M47.73 133.23 C73.93 105.87, 97.62 75.46, 120.09 48.73 M49.16 132.62 C67.18 112.68, 84.21 92.76, 122.11 50.32 M52.5 134.77 C69.01 115.99, 85.73 95.23, 122.35 54.38 M52.9 133.98 C68.37 116.07, 84.82 97.38, 121.63 56.41 M58.19 135.19 C76.75 109.62, 98.53 89.44, 123.08 60.45 M59.68 134.36 C81.23 106, 106.32 78.14, 120.69 60.95 M65.18 132.05 C78.27 118.57, 87.21 108.45, 121.23 69.75 M64.59 134.4 C84.06 109.08, 105.81 83.71, 121.01 68.29 M69.82 132.63 C87.98 112.1, 106.6 91.64, 121.66 71.91 M68.95 133.34 C82.88 116.03, 96.93 100.12, 122.05 74.36 M75.61 134.57 C88.86 118.15, 102.37 103.46, 120.3 81.98 M75.33 133.24 C87.03 119.72, 99.59 105.15, 121.03 79.89 M80.85 132.37 C90.4 120.39, 101.81 112.01, 121.2 85.66 M80.1 134.21 C91.36 122.5, 101.25 110.24, 121.87 87.36 M85.91 134 C99.67 120.82, 109.21 106.77, 121 90.18 M84.42 134.62 C98.07 119.52, 109.57 104.17, 120.44 92.49 M88.85 131.41 C102.74 120.28, 113.96 108.97, 119.37 97.11 M90.83 132.31 C102.52 119.09, 112.69 107.49, 120.9 98.68 M96.6 133.15 C103.49 126.17, 112.04 116.89, 122.11 105.62 M96.23 132.83 C105.2 123.57, 113.12 113.27, 121.58 105.02 M100.72 134.88 C109.57 126.44, 117.59 115.5, 120.23 109.12 M102.43 132.64 C106.14 129.3, 109.68 123.7, 122 110.47 M104.5 131.98 C110.47 125.82, 118.13 121.48, 121.11 118.48 M107.19 133.34 C112.51 128.21, 116.69 120.59, 120.73 117.85 M111.14 133.82 C114.32 128.48, 119.55 126.03, 122.37 122.85 M112.56 132.97 C114.89 130.09, 117.17 126.66, 121.61 122.41 M117 133.6 C117.48 133.04, 118.92 131.17, 121.55 128.99 M117.01 133.64 C118.52 131.98, 119.91 130.49, 121.22 128.97" stroke="#82c91e" stroke-width="0.5" fill="none"></path><path d="M-1.75 0.44 C30.5 0.95, 61.29 -0.47, 118.28 0.23 M0.26 0.36 C35.97 1.71, 74.37 0.05, 119.43 -0.43 M118.43 -1.65 C117.29 33.67, 117.8 62.57, 120.56 133.71 M119.99 0.62 C119.99 41.31, 120.43 83.51, 119.39 132.21 M118.43 133.45 C81.22 133.97, 38.37 133.83, -1.05 132.65 M120.69 132.02 C82.94 134.38, 47.36 133.17, 0.3 133.46 M0.89 131.57 C-0.29 80.61, -0.54 30.38, -1.17 0.96 M0 133.33 C-1.15 98.85, -1.18 63.31, 0.81 -0.08" stroke="#000000" stroke-width="1" fill="none"></path></g><g transform="translate(331.24022720415724 284.05555555555475) rotate(0 55 14)"><text x="55" y="21" font-family="Cascadia, Segoe UI Emoji" font-size="20px" fill="#000000" text-anchor="middle" style="white-space: pre;" direction="ltr">bin2hex</text></g><g stroke-linecap="round"><g transform="translate(195.52990974384056 27.30658112058154) rotate(0 -0.036358776921360914 16.519241812899963)"><path d="M0.17 -0.63 C0.49 4.8, 0.99 26.82, 1.13 32.48 M-1.2 1.66 C-0.87 7.24, 0.45 28.15, 0.77 33.67" stroke="#c92a2a" stroke-width="4" fill="none"></path></g></g><g stroke-linecap="round"><g transform="translate(230.7399830621498 28.51584811793873) rotate(0 0.5243363849303933 17.411901911245877)"><path d="M-0.63 1.13 C-0.72 6.79, -0.8 28.97, -0.67 34.15 M1.24 0.68 C1.55 6.01, 1.98 27.16, 1.69 32.55" stroke="#c92a2a" stroke-width="4" fill="none"></path></g></g><g stroke-linecap="round"><g transform="translate(197.08192977537828 77.9146147853753) rotate(0 0.7551673036332431 17.15075373075979)"><path d="M1.13 -0.67 C1.27 4.99, 1.34 27.51, 1 33.33 M0.26 1.6 C0.32 7.53, 0.38 29.82, 0.58 34.97" stroke="#c92a2a" stroke-width="4" fill="none"></path></g></g><g stroke-linecap="round"><g transform="translate(230.09296690461088 77.07703547729034) rotate(0 0.2581742398579081 16.871248939362886)"><path d="M-0.67 1 C-0.53 6.18, -0.11 26.86, 0.19 32.21 M1.18 0.48 C1.23 6.3, -0.62 27.6, -0.66 33.26" stroke="#c92a2a" stroke-width="4" fill="none"></path></g></g><g stroke-linecap="round"><g transform="translate(214.62365174619845 8.230509055305447) rotate(89.99999999999994 0.18445652640752996 16.753703446463078)"><path d="M1 0.19 C0.66 6.01, -0.76 28.69, -0.93 34.27 M0.07 -0.76 C-0.01 4.81, 1.44 27.34, 1.29 32.73" stroke="#c92a2a" stroke-width="4" fill="none"></path></g></g><g stroke-linecap="round"><g transform="translate(213.08697070704784 52.63201879031112) rotate(89.99999999999994 -0.02598860984676321 16.856227738904636)"><path d="M0.19 -0.93 C0.49 4.42, 1.07 27.32, 1.12 33.12 M-1.17 1.19 C-0.88 7.27, 0.56 29.53, 0.76 34.64" stroke="#c92a2a" stroke-width="4" fill="none"></path></g></g><g stroke-linecap="round"><g transform="translate(213.94741969484767 99.17183576865864) rotate(89.99999999999994 -0.10365548992535878 17.164124565943894)"><path d="M-0.93 1.12 C-1.1 6.7, -0.3 28.33, -0.03 33.66 M0.78 0.66 C0.36 5.87, -0.91 26.19, -0.99 31.81" stroke="#c92a2a" stroke-width="4" fill="none"></path></g></g><g stroke-linecap="round" transform="translate(169.52990974384102 10) rotate(0 44.50000000000023 61)"><path d="M-0.04 0.86 C29.27 -0.88, 56.82 -0.99, 87.75 1.95 M0.16 0.7 C17.73 -0.6, 36.79 -0.4, 89.74 -0.61 M90.24 -0.76 C88.88 24.77, 90.99 52.13, 90.11 122.31 M89.94 0.15 C88.54 43.92, 87.56 90.51, 88.28 121.48 M90.44 123.26 C55.17 121.33, 17.17 123.69, -0.63 123.74 M88.38 121.69 C55.23 122.07, 20.75 121.56, -0.02 121.91 M1.65 122.4 C-0.88 82.08, -0.75 44.35, -0.69 0.85 M-0.86 122.27 C0.75 97.61, 1.31 72.62, -0.92 0.43" stroke="#000000" stroke-width="1" fill="none"></path></g><g stroke-linecap="round"><g transform="translate(215.20848117241212 230.8531746031731) rotate(0 0.16345981233098428 -47.21441932007474)"><path d="M0.94 -0.52 C1.05 -16.42, 0.39 -80.52, 0.21 -96.25 M-0.03 1.82 C-0.01 -13.89, -0.47 -78.74, -0.63 -95.23" stroke="#000000" stroke-width="1" fill="none"></path></g><g transform="translate(215.20848117241212 230.8531746031731) rotate(0 0.16345981233098428 -47.21441932007474)"><path d="M8.99 -66.76 C5.7 -74.56, 5.15 -82.16, 0.56 -96.4 M9.57 -66.5 C7.31 -74.46, 3.73 -83.37, -0.6 -95.97" stroke="#000000" stroke-width="1" fill="none"></path></g><g transform="translate(215.20848117241212 230.8531746031731) rotate(0 0.16345981233098428 -47.21441932007474)"><path d="M-11.53 -66.6 C-9.47 -74.6, -4.65 -82.25, 0.56 -96.4 M-10.95 -66.34 C-7.44 -74.54, -5.24 -83.49, -0.6 -95.97" stroke="#000000" stroke-width="1" fill="none"></path></g></g><g stroke-linecap="round"><g transform="translate(374.9584811724112 229.3551587301572) rotate(0 0.6627985278423694 -47.50703978509409)"><path d="M-0.35 0.17 C-0.31 -15.73, 0.82 -79.32, 1.01 -95.19 M1.67 -0.78 C1.57 -16.5, 0.8 -78.13, 0.59 -93.6" stroke="#000000" stroke-width="1" fill="none"></path></g><g transform="translate(374.9584811724112 229.3551587301572) rotate(0 0.6627985278423694 -47.50703978509409)"><path d="M11.5 -63.87 C7.43 -74.51, 3.78 -87.4, 1.37 -92.19 M11.06 -66.39 C6.71 -75.1, 3.84 -87.03, 1.46 -94.44" stroke="#000000" stroke-width="1" fill="none"></path></g><g transform="translate(374.9584811724112 229.3551587301572) rotate(0 0.6627985278423694 -47.50703978509409)"><path d="M-9.02 -63.61 C-5.62 -74.28, -1.8 -87.27, 1.37 -92.19 M-9.46 -66.12 C-6.19 -75.05, -1.45 -87.08, 1.46 -94.44" stroke="#000000" stroke-width="1" fill="none"></path></g></g><g stroke-linecap="round"><g stroke-opacity="0.1" fill-opacity="0.1" transform="translate(358.13705260098277 28.092295406297126) rotate(0 0.597168641000053 16.742979491884398)"><path d="M-0.32 -0.26 C-0.12 5.22, 0.23 27.83, 0.28 33.31 M1.71 -1.44 C1.86 4.22, -0.1 29.08, -0.52 34.93" stroke="#c92a2a" stroke-width="4" fill="none"></path></g></g><g stroke-linecap="round"><g transform="translate(393.34712591929156 29.301562403654316) rotate(0 0.5505520781503037 17.012289053230234)"><path d="M-0.26 0.28 C-0.3 5.86, 0.21 27.63, 0.16 33.12 M1.8 -0.62 C1.58 5.19, -0.14 28.78, -0.7 34.64" stroke="#c92a2a" stroke-width="4" fill="none"></path></g></g><g stroke-linecap="round"><g transform="translate(359.6890726325205 78.70032907109089) rotate(0 -0.392116651855531 16.53412477278107)"><path d="M0.28 0.16 C0.33 5.64, 0.01 26.99, -0.03 32.61 M-1.03 -0.8 C-1.11 4.86, -1.05 28.41, -0.99 33.87" stroke="#c92a2a" stroke-width="4" fill="none"></path></g></g><g stroke-linecap="round"><g stroke-opacity="0.1" fill-opacity="0.1" transform="translate(392.70010976175354 77.86274976300592) rotate(0 -0.835153878456822 16.856143262116348)"><path d="M0.16 -0.03 C0.12 5.46, -0.63 27.77, -0.53 33.22 M-1.21 -1.09 C-1.44 4.59, -2.03 28.99, -1.76 34.8" stroke="#c92a2a" stroke-width="4" fill="none"></path></g></g><g stroke-linecap="round"><g transform="translate(377.2307946033411 9.016223341021032) rotate(89.99999999999994 -0.7214490858541467 16.68558474413203)"><path d="M-0.03 -0.53 C-0.06 5.09, 0.15 28.15, 0.08 33.91 M-1.5 1.8 C-1.71 7.07, -0.84 27.13, -0.83 32.18" stroke="#c92a2a" stroke-width="4" fill="none"></path></g></g><g stroke-linecap="round"><g transform="translate(375.6941135641896 53.41773307602671) rotate(89.99999999999994 0.42602522755032624 16.536272771982112)"><path d="M-0.53 0.08 C-0.43 5.53, 0.53 26.99, 0.76 32.7 M1.39 -0.93 C1.38 4.69, 0.35 28.41, 0.21 34" stroke="#c92a2a" stroke-width="4" fill="none"></path></g></g><g stroke-linecap="round"><g transform="translate(376.5545625519894 99.95755005437422) rotate(89.99999999999994 -0.8580225023702042 17.06482156626953)"><path d="M0.08 0.76 C0.01 6.52, -0.63 28.76, -0.45 34.02 M-1.34 0.11 C-1.61 5.59, -2.03 26.84, -1.63 32.35" stroke="#c92a2a" stroke-width="4" fill="none"></path></g></g><g stroke-linecap="round" transform="translate(332.13705260098277 10.785714285715585) rotate(0 44.5 61)"><path d="M-0.75 1.45 C24.71 -1.95, 45.05 0.04, 89.37 -1.1 M-0.81 0.17 C35.81 0.12, 71.39 -0.98, 88.46 0.25 M88.9 1.23 C90.49 38.47, 90.96 74.08, 90.14 122.01 M89.17 0.32 C89.43 39.68, 89.7 79.86, 89.26 122.57 M90.01 122.92 C58.5 122.26, 32.64 122.08, -1.98 121.08 M89.82 121.56 C62.17 121.36, 33.24 120.59, -0.36 122.71 M0.32 120.15 C-1.26 81.83, -0.27 43.29, -0.43 -1.24 M-0.55 121.31 C-0.89 96.51, -1.22 69.63, 0.38 -0.07" stroke="#000000" stroke-width="1" fill="none"></path></g><g stroke-linecap="round"><g transform="translate(283.2662210205217 752.1131382267449) rotate(0 21.32397599871001 -6.362526635147333)"><path d="M-0.74 1.74 C6.49 -0.85, 36.66 -11.43, 43.39 -14.46 M4.05 0.21 C11.16 -2.02, 37.1 -8.58, 42.65 -11.06" stroke="#000000" stroke-width="2" fill="none"></path></g></g></svg>